%TF.GenerationSoftware,KiCad,Pcbnew,9.0.7*%
%TF.CreationDate,2026-03-24T23:58:10-07:00*%
%TF.ProjectId,PCBTest,50434254-6573-4742-9e6b-696361645f70,rev?*%
%TF.SameCoordinates,Original*%
%TF.FileFunction,Soldermask,Top*%
%TF.FilePolarity,Negative*%
%FSLAX46Y46*%
G04 Gerber Fmt 4.6, Leading zero omitted, Abs format (unit mm)*
G04 Created by KiCad (PCBNEW 9.0.7) date 2026-03-24 23:58:10*
%MOMM*%
%LPD*%
G01*
G04 APERTURE LIST*
%ADD10C,1.381000*%
%ADD11R,1.524000X1.524000*%
%ADD12C,1.524000*%
%ADD13R,1.625600X1.625600*%
%ADD14C,1.625600*%
%ADD15C,1.200000*%
%ADD16O,2.820000X1.512000*%
%ADD17O,1.512000X2.820000*%
%ADD18C,1.270000*%
%ADD19C,1.320800*%
%ADD20C,2.006600*%
%ADD21C,1.295400*%
%ADD22R,1.397000X1.397000*%
%ADD23C,1.397000*%
%ADD24R,1.320800X1.320800*%
%ADD25R,1.295400X1.295400*%
%ADD26R,1.879600X1.879600*%
%ADD27C,1.879600*%
%ADD28C,1.651000*%
%ADD29C,1.712000*%
%ADD30C,2.700000*%
%ADD31R,1.371600X1.371600*%
%ADD32C,1.371600*%
%ADD33R,1.651000X1.651000*%
%ADD34R,5.334000X5.232400*%
%ADD35O,5.204000X2.704000*%
%ADD36O,4.704000X2.454000*%
%ADD37O,2.454000X4.704000*%
G04 APERTURE END LIST*
D10*
%TO.C,VR1*%
X88000000Y-134600000D03*
X90500000Y-134600000D03*
X93000000Y-134600000D03*
X88000000Y-127000000D03*
X90500000Y-127000000D03*
X93000000Y-127000000D03*
%TD*%
D11*
%TO.C,U9*%
X145661700Y-88090000D03*
D12*
X146931700Y-85550000D03*
X148201700Y-88090000D03*
%TD*%
D13*
%TO.C,CR12*%
X127318300Y-105996800D03*
D14*
X139398300Y-105996800D03*
%TD*%
D15*
%TO.C,J2*%
X97000000Y-36500000D03*
X97000000Y-34000000D03*
X92000000Y-41500000D03*
X87000000Y-36500000D03*
X87000000Y-34000000D03*
D16*
X92000000Y-36500000D03*
D17*
X87000000Y-41500000D03*
X97000000Y-41500000D03*
%TD*%
D18*
%TO.C,C19*%
X160056100Y-52698900D03*
X162056100Y-52698900D03*
%TD*%
D19*
%TO.C,SW1*%
X55987600Y-54205900D03*
X55987600Y-56205900D03*
X55987600Y-58205901D03*
D20*
X55987600Y-52105901D03*
X55987600Y-60305899D03*
%TD*%
D21*
%TO.C,Q1*%
X159460000Y-138000000D03*
X160730000Y-136730000D03*
X162000000Y-138000000D03*
%TD*%
D22*
%TO.C,R24*%
X143248700Y-55591200D03*
D23*
X154678700Y-55591200D03*
%TD*%
D24*
%TO.C,C20*%
X127245300Y-90701900D03*
D19*
X129745300Y-90701900D03*
%TD*%
D24*
%TO.C,C2*%
X126563600Y-136576900D03*
D19*
X129063600Y-136576900D03*
%TD*%
D13*
%TO.C,CR20*%
X98500000Y-69500000D03*
D14*
X110580000Y-69500000D03*
%TD*%
D25*
%TO.C,R41*%
X83587900Y-88806200D03*
D21*
X91461900Y-88806200D03*
%TD*%
D13*
%TO.C,CR8*%
X128000000Y-82012800D03*
D14*
X140080000Y-82012800D03*
%TD*%
D13*
%TO.C,CR10*%
X127318300Y-97240400D03*
D14*
X139398300Y-97240400D03*
%TD*%
D25*
%TO.C,R42*%
X83587900Y-92473200D03*
D21*
X91461900Y-92473200D03*
%TD*%
D13*
%TO.C,CR13*%
X127318300Y-110375000D03*
D14*
X139398300Y-110375000D03*
%TD*%
D22*
%TO.C,R28*%
X143248700Y-68421000D03*
D23*
X154678700Y-68421000D03*
%TD*%
D26*
%TO.C,U15*%
X100874900Y-96950400D03*
D27*
X103414900Y-96950400D03*
X105954900Y-96950400D03*
%TD*%
D28*
%TO.C,U8*%
X160730000Y-118870900D03*
X163270000Y-118870900D03*
X165810000Y-118870900D03*
%TD*%
D11*
%TO.C,U4*%
X144980000Y-133965000D03*
D12*
X146250000Y-131425000D03*
X147520000Y-133965000D03*
%TD*%
D13*
%TO.C,CR1*%
X128000000Y-51365400D03*
D14*
X140080000Y-51365400D03*
%TD*%
D13*
%TO.C,CR11*%
X127318300Y-101618600D03*
D14*
X139398300Y-101618600D03*
%TD*%
D22*
%TO.C,R11*%
X142567000Y-122849200D03*
D23*
X153997000Y-122849200D03*
%TD*%
D22*
%TO.C,R33*%
X143248700Y-81250800D03*
D23*
X154678700Y-81250800D03*
%TD*%
D29*
%TO.C,D1*%
X56460000Y-83000000D03*
X59000000Y-83000000D03*
%TD*%
D18*
%TO.C,C34*%
X77596100Y-101681300D03*
X79596100Y-101681300D03*
%TD*%
D22*
%TO.C,R7*%
X142567000Y-105742800D03*
D23*
X153997000Y-105742800D03*
%TD*%
D24*
%TO.C,C24*%
X151934100Y-85511900D03*
D19*
X154434100Y-85511900D03*
%TD*%
D21*
%TO.C,Q13*%
X160141700Y-92125000D03*
X161411700Y-90855000D03*
X162681700Y-92125000D03*
%TD*%
D22*
%TO.C,R32*%
X143248700Y-76974200D03*
D23*
X154678700Y-76974200D03*
%TD*%
D18*
%TO.C,C30*%
X77596100Y-73500500D03*
X79596100Y-73500500D03*
%TD*%
D22*
%TO.C,R31*%
X143248700Y-72697600D03*
D23*
X154678700Y-72697600D03*
%TD*%
D13*
%TO.C,CR5*%
X128000000Y-68878200D03*
D14*
X140080000Y-68878200D03*
%TD*%
D22*
%TO.C,R9*%
X142567000Y-114296000D03*
D23*
X153997000Y-114296000D03*
%TD*%
D30*
%TO.C,BR*%
X171500000Y-135000000D03*
%TD*%
D13*
%TO.C,CR22*%
X98500000Y-78256400D03*
D14*
X110580000Y-78256400D03*
%TD*%
D22*
%TO.C,R39*%
X96988700Y-86857600D03*
D23*
X108418700Y-86857600D03*
%TD*%
D22*
%TO.C,R22*%
X96988700Y-82581000D03*
D23*
X108418700Y-82581000D03*
%TD*%
D18*
%TO.C,C32*%
X77596100Y-87590900D03*
X79596100Y-87590900D03*
%TD*%
D24*
%TO.C,C3*%
X151252400Y-135638100D03*
D19*
X153752400Y-135638100D03*
%TD*%
D28*
%TO.C,U7*%
X160730000Y-112384500D03*
X163270000Y-112384500D03*
X165810000Y-112384500D03*
%TD*%
D22*
%TO.C,R25*%
X143248700Y-59867800D03*
D23*
X154678700Y-59867800D03*
%TD*%
D15*
%TO.C,J1*%
X77000000Y-36500000D03*
X77000000Y-34000000D03*
X72000000Y-41500000D03*
X67000000Y-36500000D03*
X67000000Y-34000000D03*
D16*
X72000000Y-36500000D03*
D17*
X67000000Y-41500000D03*
X77000000Y-41500000D03*
%TD*%
D18*
%TO.C,C29*%
X77596100Y-66455300D03*
X79596100Y-66455300D03*
%TD*%
D31*
%TO.C,R4*%
X99500000Y-55776600D03*
D32*
X111184000Y-55776600D03*
%TD*%
D11*
%TO.C,U6*%
X157792200Y-78336500D03*
D12*
X157792200Y-80876500D03*
X157792200Y-83416500D03*
X157792200Y-85956500D03*
X165412200Y-85956500D03*
X165412200Y-83416500D03*
X165412200Y-80876500D03*
X165412200Y-78336500D03*
%TD*%
D31*
%TO.C,R3*%
X99500000Y-51500000D03*
D32*
X111184000Y-51500000D03*
%TD*%
D11*
%TO.C,U3*%
X157110500Y-124211500D03*
D12*
X157110500Y-126751500D03*
X157110500Y-129291500D03*
X157110500Y-131831500D03*
X164730500Y-131831500D03*
X164730500Y-129291500D03*
X164730500Y-126751500D03*
X164730500Y-124211500D03*
%TD*%
D32*
%TO.C,C37*%
X86953400Y-68944500D03*
X91957200Y-68944500D03*
%TD*%
D24*
%TO.C,C25*%
X151934100Y-89763100D03*
D19*
X154434100Y-89763100D03*
%TD*%
D13*
%TO.C,CR16*%
X127318300Y-123509600D03*
D14*
X139398300Y-123509600D03*
%TD*%
D22*
%TO.C,R23*%
X143248700Y-51314600D03*
D23*
X154678700Y-51314600D03*
%TD*%
D13*
%TO.C,CR6*%
X128000000Y-73256400D03*
D14*
X140080000Y-73256400D03*
%TD*%
D22*
%TO.C,R6*%
X142567000Y-101466200D03*
D23*
X153997000Y-101466200D03*
%TD*%
D22*
%TO.C,R8*%
X142567000Y-110019400D03*
D23*
X153997000Y-110019400D03*
%TD*%
D28*
%TO.C,U2*%
X161411700Y-72995900D03*
X163951700Y-72995900D03*
X166491700Y-72995900D03*
%TD*%
D13*
%TO.C,CR7*%
X128000000Y-77634600D03*
D14*
X140080000Y-77634600D03*
%TD*%
D13*
%TO.C,CR17*%
X127318300Y-127887800D03*
D14*
X139398300Y-127887800D03*
%TD*%
D30*
%TO.C,TL*%
X57500000Y-36000000D03*
%TD*%
D32*
%TO.C,C38*%
X86953400Y-80968100D03*
X91957200Y-80968100D03*
%TD*%
D33*
%TO.C,U5*%
X100811400Y-103173400D03*
D28*
X103351400Y-103173400D03*
X105891400Y-103173400D03*
%TD*%
D30*
%TO.C,BL*%
X60500000Y-134500000D03*
%TD*%
D34*
%TO.C,F1*%
X116500000Y-36000000D03*
X132222600Y-36000000D03*
%TD*%
D13*
%TO.C,CR19*%
X98500000Y-65121800D03*
D14*
X110580000Y-65121800D03*
%TD*%
D30*
%TO.C,TR*%
X171000000Y-35000000D03*
%TD*%
D13*
%TO.C,CR4*%
X128000000Y-64500000D03*
D14*
X140080000Y-64500000D03*
%TD*%
D18*
%TO.C,C31*%
X77596100Y-80545700D03*
X79596100Y-80545700D03*
%TD*%
D13*
%TO.C,CR2*%
X128000000Y-55743600D03*
D14*
X140080000Y-55743600D03*
%TD*%
D13*
%TO.C,CR21*%
X98500000Y-73878200D03*
D14*
X110580000Y-73878200D03*
%TD*%
D18*
%TO.C,C33*%
X77596100Y-94636100D03*
X79596100Y-94636100D03*
%TD*%
D13*
%TO.C,CR3*%
X128000000Y-60121800D03*
D14*
X140080000Y-60121800D03*
%TD*%
D22*
%TO.C,R10*%
X142567000Y-118572600D03*
D23*
X153997000Y-118572600D03*
%TD*%
D22*
%TO.C,R40*%
X96988700Y-91134200D03*
D23*
X108418700Y-91134200D03*
%TD*%
D13*
%TO.C,CR15*%
X127318300Y-119131400D03*
D14*
X139398300Y-119131400D03*
%TD*%
D13*
%TO.C,CR9*%
X128000000Y-86391000D03*
D14*
X140080000Y-86391000D03*
%TD*%
D18*
%TO.C,C4*%
X159374400Y-98573900D03*
X161374400Y-98573900D03*
%TD*%
D22*
%TO.C,R5*%
X142567000Y-97189600D03*
D23*
X153997000Y-97189600D03*
%TD*%
D13*
%TO.C,CR14*%
X127318300Y-114753200D03*
D14*
X139398300Y-114753200D03*
%TD*%
D13*
%TO.C,CR18*%
X127318300Y-132266000D03*
D14*
X139398300Y-132266000D03*
%TD*%
D35*
%TO.C,J5*%
X153000000Y-44000000D03*
D36*
X153000000Y-38000000D03*
D37*
X148300000Y-41000000D03*
%TD*%
D24*
%TO.C,C1*%
X151252400Y-131386900D03*
D19*
X153752400Y-131386900D03*
%TD*%
D18*
%TO.C,C5*%
X159374400Y-105619100D03*
X161374400Y-105619100D03*
%TD*%
D22*
%TO.C,R26*%
X143248700Y-64144400D03*
D23*
X154678700Y-64144400D03*
%TD*%
D18*
%TO.C,C21*%
X160056100Y-59744100D03*
X162056100Y-59744100D03*
%TD*%
D22*
%TO.C,R12*%
X142567000Y-127125800D03*
D23*
X153997000Y-127125800D03*
%TD*%
D28*
%TO.C,U1*%
X161411700Y-66509500D03*
X163951700Y-66509500D03*
X166491700Y-66509500D03*
%TD*%
M02*
