%TF.GenerationSoftware,KiCad,Pcbnew,9.0.7*%
%TF.CreationDate,2026-03-24T23:58:10-07:00*%
%TF.ProjectId,PCBTest,50434254-6573-4742-9e6b-696361645f70,rev?*%
%TF.SameCoordinates,Original*%
%TF.FileFunction,Copper,L2,Bot*%
%TF.FilePolarity,Positive*%
%FSLAX46Y46*%
G04 Gerber Fmt 4.6, Leading zero omitted, Abs format (unit mm)*
G04 Created by KiCad (PCBNEW 9.0.7) date 2026-03-24 23:58:10*
%MOMM*%
%LPD*%
G01*
G04 APERTURE LIST*
%TA.AperFunction,ComponentPad*%
%ADD10C,1.381000*%
%TD*%
%TA.AperFunction,ComponentPad*%
%ADD11R,1.524000X1.524000*%
%TD*%
%TA.AperFunction,ComponentPad*%
%ADD12C,1.524000*%
%TD*%
%TA.AperFunction,ComponentPad*%
%ADD13R,1.625600X1.625600*%
%TD*%
%TA.AperFunction,ComponentPad*%
%ADD14C,1.625600*%
%TD*%
%TA.AperFunction,ComponentPad*%
%ADD15O,2.616000X1.308000*%
%TD*%
%TA.AperFunction,ComponentPad*%
%ADD16O,1.308000X2.616000*%
%TD*%
%TA.AperFunction,ComponentPad*%
%ADD17C,1.270000*%
%TD*%
%TA.AperFunction,ComponentPad*%
%ADD18C,1.320800*%
%TD*%
%TA.AperFunction,ComponentPad*%
%ADD19C,2.006600*%
%TD*%
%TA.AperFunction,ComponentPad*%
%ADD20C,1.295400*%
%TD*%
%TA.AperFunction,ComponentPad*%
%ADD21R,1.397000X1.397000*%
%TD*%
%TA.AperFunction,ComponentPad*%
%ADD22C,1.397000*%
%TD*%
%TA.AperFunction,ComponentPad*%
%ADD23R,1.320800X1.320800*%
%TD*%
%TA.AperFunction,ComponentPad*%
%ADD24R,1.295400X1.295400*%
%TD*%
%TA.AperFunction,ComponentPad*%
%ADD25R,1.879600X1.879600*%
%TD*%
%TA.AperFunction,ComponentPad*%
%ADD26C,1.879600*%
%TD*%
%TA.AperFunction,ComponentPad*%
%ADD27C,1.651000*%
%TD*%
%TA.AperFunction,ComponentPad*%
%ADD28C,1.508000*%
%TD*%
%TA.AperFunction,ComponentPad*%
%ADD29R,1.371600X1.371600*%
%TD*%
%TA.AperFunction,ComponentPad*%
%ADD30C,1.371600*%
%TD*%
%TA.AperFunction,ComponentPad*%
%ADD31R,1.651000X1.651000*%
%TD*%
%TA.AperFunction,ComponentPad*%
%ADD32O,5.000000X2.500000*%
%TD*%
%TA.AperFunction,ComponentPad*%
%ADD33O,4.500000X2.250000*%
%TD*%
%TA.AperFunction,ComponentPad*%
%ADD34O,2.250000X4.500000*%
%TD*%
%TA.AperFunction,ViaPad*%
%ADD35C,0.600000*%
%TD*%
%TA.AperFunction,Conductor*%
%ADD36C,0.200000*%
%TD*%
G04 APERTURE END LIST*
D10*
%TO.P,VR1,R11,CCW_1*%
%TO.N,GNDREF*%
X88000000Y-134600000D03*
%TO.P,VR1,R12,WIPER_1*%
%TO.N,LineInputLeft*%
X90500000Y-134600000D03*
%TO.P,VR1,R13,CW_1*%
%TO.N,Net-(VR1-CW_1)*%
X93000000Y-134600000D03*
%TO.P,VR1,SW1,CCW_2*%
%TO.N,GNDREF*%
X88000000Y-127000000D03*
%TO.P,VR1,SW2,WIPER_2*%
%TO.N,LineInputRight*%
X90500000Y-127000000D03*
%TO.P,VR1,SW3,CW_2*%
%TO.N,Net-(VR1-CW_2)*%
X93000000Y-127000000D03*
%TD*%
D11*
%TO.P,U9,1,EMITTER*%
%TO.N,Net-(U9-EMITTER)*%
X145661700Y-88090000D03*
D12*
%TO.P,U9,2,BASE*%
%TO.N,Net-(U9-BASE)*%
X146931700Y-85550000D03*
%TO.P,U9,3,COLLECTOR*%
%TO.N,Net-(U1-B)*%
X148201700Y-88090000D03*
%TD*%
D13*
%TO.P,CR12,1*%
%TO.N,Net-(CR12-Pad1)*%
X127318300Y-105996800D03*
D14*
%TO.P,CR12,2*%
%TO.N,+15V*%
X139398300Y-105996800D03*
%TD*%
D15*
%TO.P,J2,1*%
%TO.N,GNDREF*%
X92000000Y-36500000D03*
D16*
%TO.P,J2,2*%
%TO.N,Net-(J2-Pad2)*%
X87000000Y-41500000D03*
%TO.P,J2,3*%
%TO.N,Net-(J2-Pad3)*%
X97000000Y-41500000D03*
%TD*%
D17*
%TO.P,C19,1*%
%TO.N,+15V*%
X160056100Y-52698900D03*
%TO.P,C19,2*%
%TO.N,0*%
X162056100Y-52698900D03*
%TD*%
D18*
%TO.P,SW1,1,1*%
%TO.N,12 VAC*%
X55987600Y-54205900D03*
%TO.P,SW1,2,2*%
%TO.N,Net-(F1-Pad1)*%
X55987600Y-56205900D03*
%TO.P,SW1,3,3*%
%TO.N,unconnected-(SW1-Pad3)*%
X55987600Y-58205901D03*
D19*
%TO.P,SW1,4*%
%TO.N,N/C*%
X55987600Y-52105901D03*
%TO.P,SW1,5*%
X55987600Y-60305899D03*
%TD*%
D20*
%TO.P,Q1,1,1*%
%TO.N,Net-(Q1-Pad1)*%
X159460000Y-138000000D03*
%TO.P,Q1,2,2*%
%TO.N,Net-(U7-B)*%
X160730000Y-136730000D03*
%TO.P,Q1,3,3*%
%TO.N,Net-(CR13-Pad1)*%
X162000000Y-138000000D03*
%TD*%
D21*
%TO.P,R24,1*%
%TO.N,Net-(Q13-Pad1)*%
X143248700Y-55591200D03*
D22*
%TO.P,R24,2*%
%TO.N,+15V*%
X154678700Y-55591200D03*
%TD*%
D23*
%TO.P,C20,1*%
%TO.N,GNDREF*%
X127245300Y-90701900D03*
D18*
%TO.P,C20,2*%
%TO.N,LineInputLeft*%
X129745300Y-90701900D03*
%TD*%
D23*
%TO.P,C2,1*%
%TO.N,GNDREF*%
X126563600Y-136576900D03*
D18*
%TO.P,C2,2*%
%TO.N,LineInputRight*%
X129063600Y-136576900D03*
%TD*%
D13*
%TO.P,CR20,1*%
%TO.N,PowerSupply*%
X98500000Y-69500000D03*
D14*
%TO.P,CR20,2*%
%TO.N,Net-(U15-IN)*%
X110580000Y-69500000D03*
%TD*%
D24*
%TO.P,R41,1*%
%TO.N,Net-(U5-ADJ)*%
X83587900Y-88806200D03*
D20*
%TO.P,R41,2*%
%TO.N,+15V*%
X91461900Y-88806200D03*
%TD*%
D13*
%TO.P,CR8,1*%
%TO.N,Net-(U1-B)*%
X128000000Y-82012800D03*
D14*
%TO.P,CR8,2*%
%TO.N,Net-(U6-OUTPUT)*%
X140080000Y-82012800D03*
%TD*%
D13*
%TO.P,CR10,1*%
%TO.N,+15V*%
X127318300Y-97240400D03*
D14*
%TO.P,CR10,2*%
%TO.N,LineInputRight*%
X139398300Y-97240400D03*
%TD*%
D24*
%TO.P,R42,1*%
%TO.N,-15V*%
X83587900Y-92473200D03*
D20*
%TO.P,R42,2*%
%TO.N,Net-(U15-ADJ)*%
X91461900Y-92473200D03*
%TD*%
D13*
%TO.P,CR13,1*%
%TO.N,Net-(CR13-Pad1)*%
X127318300Y-110375000D03*
D14*
%TO.P,CR13,2*%
%TO.N,Net-(CR12-Pad1)*%
X139398300Y-110375000D03*
%TD*%
D21*
%TO.P,R28,1*%
%TO.N,Net-(U6--IN)*%
X143248700Y-68421000D03*
D22*
%TO.P,R28,2*%
%TO.N,LeftHeadphoneOut*%
X154678700Y-68421000D03*
%TD*%
D25*
%TO.P,U15,1,ADJ*%
%TO.N,Net-(U15-ADJ)*%
X100874900Y-96950400D03*
D26*
%TO.P,U15,2,IN*%
%TO.N,Net-(U15-IN)*%
X103414900Y-96950400D03*
%TO.P,U15,3,OUT*%
%TO.N,-15V*%
X105954900Y-96950400D03*
%TD*%
D27*
%TO.P,U8,1,B*%
%TO.N,Net-(U4-COLLECTOR)*%
X160730000Y-118870900D03*
%TO.P,U8,2,C*%
%TO.N,-15V*%
X163270000Y-118870900D03*
%TO.P,U8,3,E*%
%TO.N,Net-(U8-E)*%
X165810000Y-118870900D03*
%TD*%
D11*
%TO.P,U4,1,EMITTER*%
%TO.N,Net-(U4-EMITTER)*%
X144980000Y-133965000D03*
D12*
%TO.P,U4,2,BASE*%
%TO.N,Net-(U4-BASE)*%
X146250000Y-131425000D03*
%TO.P,U4,3,COLLECTOR*%
%TO.N,Net-(U4-COLLECTOR)*%
X147520000Y-133965000D03*
%TD*%
D13*
%TO.P,CR1,1*%
%TO.N,+15V*%
X128000000Y-51365400D03*
D14*
%TO.P,CR1,2*%
%TO.N,LineInputLeft*%
X140080000Y-51365400D03*
%TD*%
D13*
%TO.P,CR11,1*%
%TO.N,LineInputRight*%
X127318300Y-101618600D03*
D14*
%TO.P,CR11,2*%
%TO.N,-15V*%
X139398300Y-101618600D03*
%TD*%
D21*
%TO.P,R11,1*%
%TO.N,RightHeadphoneOut*%
X142567000Y-122849200D03*
D22*
%TO.P,R11,2*%
%TO.N,Net-(U7-E)*%
X153997000Y-122849200D03*
%TD*%
D21*
%TO.P,R33,1*%
%TO.N,GNDREF*%
X143248700Y-81250800D03*
D22*
%TO.P,R33,2*%
%TO.N,Net-(U9-EMITTER)*%
X154678700Y-81250800D03*
%TD*%
D28*
%TO.P,D1,1*%
%TO.N,+15V*%
X56460000Y-83000000D03*
%TO.P,D1,2*%
%TO.N,Net-(D1-Pad2)*%
X59000000Y-83000000D03*
%TD*%
D17*
%TO.P,C34,1*%
%TO.N,GNDREF*%
X77596100Y-101681300D03*
%TO.P,C34,2*%
%TO.N,Net-(U15-ADJ)*%
X79596100Y-101681300D03*
%TD*%
D21*
%TO.P,R7,1*%
%TO.N,0*%
X142567000Y-105742800D03*
D22*
%TO.P,R7,2*%
%TO.N,Net-(CR13-Pad1)*%
X153997000Y-105742800D03*
%TD*%
D23*
%TO.P,C24,1*%
%TO.N,0*%
X151934100Y-85511900D03*
D18*
%TO.P,C24,2*%
%TO.N,+15V*%
X154434100Y-85511900D03*
%TD*%
D20*
%TO.P,Q13,1,1*%
%TO.N,Net-(Q13-Pad1)*%
X160141700Y-92125000D03*
%TO.P,Q13,2,2*%
%TO.N,Net-(U2-B)*%
X161411700Y-90855000D03*
%TO.P,Q13,3,3*%
%TO.N,Net-(CR4-Pad1)*%
X162681700Y-92125000D03*
%TD*%
D21*
%TO.P,R32,1*%
%TO.N,LeftHeadphoneOut*%
X143248700Y-76974200D03*
D22*
%TO.P,R32,2*%
%TO.N,Net-(U2-E)*%
X154678700Y-76974200D03*
%TD*%
D17*
%TO.P,C30,1*%
%TO.N,GNDREF*%
X77596100Y-73500500D03*
%TO.P,C30,2*%
%TO.N,-15V*%
X79596100Y-73500500D03*
%TD*%
D21*
%TO.P,R31,1*%
%TO.N,Net-(U1-E)*%
X143248700Y-72697600D03*
D22*
%TO.P,R31,2*%
%TO.N,LeftHeadphoneOut*%
X154678700Y-72697600D03*
%TD*%
D13*
%TO.P,CR5,1*%
%TO.N,Net-(CR5-Pad1)*%
X128000000Y-68878200D03*
D14*
%TO.P,CR5,2*%
%TO.N,Net-(U2-B)*%
X140080000Y-68878200D03*
%TD*%
D21*
%TO.P,R9,1*%
%TO.N,Net-(Q1-Pad1)*%
X142567000Y-114296000D03*
D22*
%TO.P,R9,2*%
%TO.N,+15V*%
X153997000Y-114296000D03*
%TD*%
D13*
%TO.P,CR22,1*%
%TO.N,GNDREF*%
X98500000Y-78256400D03*
D14*
%TO.P,CR22,2*%
%TO.N,-15V*%
X110580000Y-78256400D03*
%TD*%
D21*
%TO.P,R39,1*%
%TO.N,GNDREF*%
X96988700Y-86857600D03*
D22*
%TO.P,R39,2*%
%TO.N,Net-(D1-Pad2)*%
X108418700Y-86857600D03*
%TD*%
D21*
%TO.P,R22,1*%
%TO.N,GNDREF*%
X96988700Y-82581000D03*
D22*
%TO.P,R22,2*%
%TO.N,Net-(U15-ADJ)*%
X108418700Y-82581000D03*
%TD*%
D17*
%TO.P,C32,1*%
%TO.N,GNDREF*%
X77596100Y-87590900D03*
%TO.P,C32,2*%
%TO.N,Net-(U15-IN)*%
X79596100Y-87590900D03*
%TD*%
D23*
%TO.P,C3,1*%
%TO.N,-15V*%
X151252400Y-135638100D03*
D18*
%TO.P,C3,2*%
%TO.N,GNDREF*%
X153752400Y-135638100D03*
%TD*%
D27*
%TO.P,U7,1,B*%
%TO.N,Net-(U7-B)*%
X160730000Y-112384500D03*
%TO.P,U7,2,C*%
%TO.N,+15V*%
X163270000Y-112384500D03*
%TO.P,U7,3,E*%
%TO.N,Net-(U7-E)*%
X165810000Y-112384500D03*
%TD*%
D21*
%TO.P,R25,1*%
%TO.N,Net-(U6--IN)*%
X143248700Y-59867800D03*
D22*
%TO.P,R25,2*%
%TO.N,GNDREF*%
X154678700Y-59867800D03*
%TD*%
D15*
%TO.P,J1,1*%
%TO.N,0*%
X72000000Y-36500000D03*
D16*
%TO.P,J1,2*%
%TO.N,Net-(VR1-CW_1)*%
X67000000Y-41500000D03*
%TO.P,J1,3*%
%TO.N,Net-(VR1-CW_2)*%
X77000000Y-41500000D03*
%TD*%
D17*
%TO.P,C29,1*%
%TO.N,+15V*%
X77596100Y-66455300D03*
%TO.P,C29,2*%
%TO.N,GNDREF*%
X79596100Y-66455300D03*
%TD*%
D29*
%TO.P,R4,1*%
%TO.N,RightHeadphoneOut*%
X99500000Y-55776600D03*
D30*
%TO.P,R4,2*%
%TO.N,Net-(J2-Pad3)*%
X111184000Y-55776600D03*
%TD*%
D11*
%TO.P,U6,1,OFFSETNULL*%
%TO.N,unconnected-(U6-OFFSETNULL-Pad1)*%
X157792200Y-78336500D03*
D12*
%TO.P,U6,2,-IN*%
%TO.N,Net-(U6--IN)*%
X157792200Y-80876500D03*
%TO.P,U6,3,+IN*%
%TO.N,LineInputLeft*%
X157792200Y-83416500D03*
%TO.P,U6,4,-VS*%
%TO.N,-15V*%
X157792200Y-85956500D03*
%TO.P,U6,5,OFFSETNULL*%
%TO.N,unconnected-(U6-OFFSETNULL-Pad5)*%
X165412200Y-85956500D03*
%TO.P,U6,6,OUTPUT*%
%TO.N,Net-(U6-OUTPUT)*%
X165412200Y-83416500D03*
%TO.P,U6,7,+VS*%
%TO.N,+15V*%
X165412200Y-80876500D03*
%TO.P,U6,8,DECOMP_DISTORT_NEUTRA*%
%TO.N,unconnected-(U6-DECOMP_DISTORT_NEUTRA-Pad8)*%
X165412200Y-78336500D03*
%TD*%
D29*
%TO.P,R3,1*%
%TO.N,LeftHeadphoneOut*%
X99500000Y-51500000D03*
D30*
%TO.P,R3,2*%
%TO.N,Net-(J2-Pad2)*%
X111184000Y-51500000D03*
%TD*%
D11*
%TO.P,U3,1,OFFSETNULL*%
%TO.N,unconnected-(U3-OFFSETNULL-Pad1)*%
X157110500Y-124211500D03*
D12*
%TO.P,U3,2,-IN*%
%TO.N,Net-(U3--IN)*%
X157110500Y-126751500D03*
%TO.P,U3,3,+IN*%
%TO.N,LineInputRight*%
X157110500Y-129291500D03*
%TO.P,U3,4,-VS*%
%TO.N,-15V*%
X157110500Y-131831500D03*
%TO.P,U3,5,OFFSETNULL*%
%TO.N,unconnected-(U3-OFFSETNULL-Pad5)*%
X164730500Y-131831500D03*
%TO.P,U3,6,OUTPUT*%
%TO.N,Net-(U3-OUTPUT)*%
X164730500Y-129291500D03*
%TO.P,U3,7,+VS*%
%TO.N,+15V*%
X164730500Y-126751500D03*
%TO.P,U3,8,DECOMP_DISTORT_NEUTRA*%
%TO.N,unconnected-(U3-DECOMP_DISTORT_NEUTRA-Pad8)*%
X164730500Y-124211500D03*
%TD*%
D30*
%TO.P,C37,1*%
%TO.N,Net-(U5-INPUT)*%
X86953400Y-68944500D03*
%TO.P,C37,2*%
%TO.N,GNDREF*%
X91957200Y-68944500D03*
%TD*%
D23*
%TO.P,C25,1*%
%TO.N,-15V*%
X151934100Y-89763100D03*
D18*
%TO.P,C25,2*%
%TO.N,GNDREF*%
X154434100Y-89763100D03*
%TD*%
D13*
%TO.P,CR16,1*%
%TO.N,Net-(CR16-Pad1)*%
X127318300Y-123509600D03*
D14*
%TO.P,CR16,2*%
%TO.N,Net-(U7-B)*%
X139398300Y-123509600D03*
%TD*%
D21*
%TO.P,R23,1*%
%TO.N,-15V*%
X143248700Y-51314600D03*
D22*
%TO.P,R23,2*%
%TO.N,Net-(U9-BASE)*%
X154678700Y-51314600D03*
%TD*%
D13*
%TO.P,CR6,1*%
%TO.N,-15V*%
X128000000Y-73256400D03*
D14*
%TO.P,CR6,2*%
%TO.N,Net-(CR6-Pad2)*%
X140080000Y-73256400D03*
%TD*%
D21*
%TO.P,R6,1*%
%TO.N,GNDREF*%
X142567000Y-101466200D03*
D22*
%TO.P,R6,2*%
%TO.N,Net-(U4-EMITTER)*%
X153997000Y-101466200D03*
%TD*%
D21*
%TO.P,R8,1*%
%TO.N,Net-(U3--IN)*%
X142567000Y-110019400D03*
D22*
%TO.P,R8,2*%
%TO.N,RightHeadphoneOut*%
X153997000Y-110019400D03*
%TD*%
D27*
%TO.P,U2,1,B*%
%TO.N,Net-(U2-B)*%
X161411700Y-72995900D03*
%TO.P,U2,2,C*%
%TO.N,+15V*%
X163951700Y-72995900D03*
%TO.P,U2,3,E*%
%TO.N,Net-(U2-E)*%
X166491700Y-72995900D03*
%TD*%
D13*
%TO.P,CR7,1*%
%TO.N,Net-(CR6-Pad2)*%
X128000000Y-77634600D03*
D14*
%TO.P,CR7,2*%
%TO.N,Net-(U9-EMITTER)*%
X140080000Y-77634600D03*
%TD*%
D13*
%TO.P,CR17,1*%
%TO.N,Net-(U3-OUTPUT)*%
X127318300Y-127887800D03*
D14*
%TO.P,CR17,2*%
%TO.N,Net-(CR16-Pad1)*%
X139398300Y-127887800D03*
%TD*%
D30*
%TO.P,C38,1*%
%TO.N,GNDREF*%
X86953400Y-80968100D03*
%TO.P,C38,2*%
%TO.N,Net-(U15-IN)*%
X91957200Y-80968100D03*
%TD*%
D31*
%TO.P,U5,1,ADJ*%
%TO.N,Net-(U5-ADJ)*%
X100811400Y-103173400D03*
D27*
%TO.P,U5,2,OUTPUT*%
%TO.N,+15V*%
X103351400Y-103173400D03*
%TO.P,U5,3,INPUT*%
%TO.N,Net-(U5-INPUT)*%
X105891400Y-103173400D03*
%TD*%
D13*
%TO.P,CR19,1*%
%TO.N,Net-(U5-INPUT)*%
X98500000Y-65121800D03*
D14*
%TO.P,CR19,2*%
%TO.N,PowerSupply*%
X110580000Y-65121800D03*
%TD*%
D13*
%TO.P,CR4,1*%
%TO.N,Net-(CR4-Pad1)*%
X128000000Y-64500000D03*
D14*
%TO.P,CR4,2*%
%TO.N,Net-(CR3-Pad1)*%
X140080000Y-64500000D03*
%TD*%
D17*
%TO.P,C31,1*%
%TO.N,Net-(U5-INPUT)*%
X77596100Y-80545700D03*
%TO.P,C31,2*%
%TO.N,GNDREF*%
X79596100Y-80545700D03*
%TD*%
D13*
%TO.P,CR2,1*%
%TO.N,LineInputLeft*%
X128000000Y-55743600D03*
D14*
%TO.P,CR2,2*%
%TO.N,-15V*%
X140080000Y-55743600D03*
%TD*%
D13*
%TO.P,CR21,1*%
%TO.N,+15V*%
X98500000Y-73878200D03*
D14*
%TO.P,CR21,2*%
%TO.N,GNDREF*%
X110580000Y-73878200D03*
%TD*%
D17*
%TO.P,C33,1*%
%TO.N,Net-(U5-ADJ)*%
X77596100Y-94636100D03*
%TO.P,C33,2*%
%TO.N,GNDREF*%
X79596100Y-94636100D03*
%TD*%
D13*
%TO.P,CR3,1*%
%TO.N,Net-(CR3-Pad1)*%
X128000000Y-60121800D03*
D14*
%TO.P,CR3,2*%
%TO.N,+15V*%
X140080000Y-60121800D03*
%TD*%
D21*
%TO.P,R10,1*%
%TO.N,-15V*%
X142567000Y-118572600D03*
D22*
%TO.P,R10,2*%
%TO.N,Net-(U4-BASE)*%
X153997000Y-118572600D03*
%TD*%
D21*
%TO.P,R40,1*%
%TO.N,Net-(U5-ADJ)*%
X96988700Y-91134200D03*
D22*
%TO.P,R40,2*%
%TO.N,GNDREF*%
X108418700Y-91134200D03*
%TD*%
D13*
%TO.P,CR15,1*%
%TO.N,-15V*%
X127318300Y-119131400D03*
D14*
%TO.P,CR15,2*%
%TO.N,Net-(CR14-Pad1)*%
X139398300Y-119131400D03*
%TD*%
D13*
%TO.P,CR9,1*%
%TO.N,Net-(U6-OUTPUT)*%
X128000000Y-86391000D03*
D14*
%TO.P,CR9,2*%
%TO.N,Net-(CR5-Pad1)*%
X140080000Y-86391000D03*
%TD*%
D17*
%TO.P,C4,1*%
%TO.N,+15V*%
X159374400Y-98573900D03*
%TO.P,C4,2*%
%TO.N,0*%
X161374400Y-98573900D03*
%TD*%
D21*
%TO.P,R5,1*%
%TO.N,Net-(U3--IN)*%
X142567000Y-97189600D03*
D22*
%TO.P,R5,2*%
%TO.N,GNDREF*%
X153997000Y-97189600D03*
%TD*%
D13*
%TO.P,CR14,1*%
%TO.N,Net-(CR14-Pad1)*%
X127318300Y-114753200D03*
D14*
%TO.P,CR14,2*%
%TO.N,Net-(U4-EMITTER)*%
X139398300Y-114753200D03*
%TD*%
D13*
%TO.P,CR18,1*%
%TO.N,Net-(U4-COLLECTOR)*%
X127318300Y-132266000D03*
D14*
%TO.P,CR18,2*%
%TO.N,Net-(U3-OUTPUT)*%
X139398300Y-132266000D03*
%TD*%
D32*
%TO.P,J5,1*%
%TO.N,12 VAC*%
X153000000Y-44000000D03*
D33*
%TO.P,J5,2*%
%TO.N,GNDREF*%
X153000000Y-38000000D03*
D34*
%TO.P,J5,3*%
%TO.N,unconnected-(J5-Pad3)*%
X148300000Y-41000000D03*
%TD*%
D23*
%TO.P,C1,1*%
%TO.N,0*%
X151252400Y-131386900D03*
D18*
%TO.P,C1,2*%
%TO.N,+15V*%
X153752400Y-131386900D03*
%TD*%
D17*
%TO.P,C5,1*%
%TO.N,GNDREF*%
X159374400Y-105619100D03*
%TO.P,C5,2*%
%TO.N,-15V*%
X161374400Y-105619100D03*
%TD*%
D21*
%TO.P,R26,1*%
%TO.N,0*%
X143248700Y-64144400D03*
D22*
%TO.P,R26,2*%
%TO.N,Net-(CR4-Pad1)*%
X154678700Y-64144400D03*
%TD*%
D17*
%TO.P,C21,1*%
%TO.N,GNDREF*%
X160056100Y-59744100D03*
%TO.P,C21,2*%
%TO.N,-15V*%
X162056100Y-59744100D03*
%TD*%
D21*
%TO.P,R12,1*%
%TO.N,Net-(U8-E)*%
X142567000Y-127125800D03*
D22*
%TO.P,R12,2*%
%TO.N,RightHeadphoneOut*%
X153997000Y-127125800D03*
%TD*%
D27*
%TO.P,U1,1,B*%
%TO.N,Net-(U1-B)*%
X161411700Y-66509500D03*
%TO.P,U1,2,C*%
%TO.N,-15V*%
X163951700Y-66509500D03*
%TO.P,U1,3,E*%
%TO.N,Net-(U1-E)*%
X166491700Y-66509500D03*
%TD*%
D35*
%TO.N,Net-(U4-BASE)*%
X147860400Y-121042800D03*
%TO.N,Net-(U3--IN)*%
X151916400Y-122172600D03*
X149640100Y-111344200D03*
%TO.N,Net-(Q1-Pad1)*%
X155143300Y-115620800D03*
%TO.N,Net-(U4-COLLECTOR)*%
X148672000Y-121113500D03*
%TO.N,Net-(U7-B)*%
X155996800Y-120050800D03*
%TO.N,Net-(U4-EMITTER)*%
X148821300Y-112158200D03*
%TO.N,Net-(U6--IN)*%
X155287000Y-69768900D03*
%TO.N,RightHeadphoneOut*%
X147190200Y-61316700D03*
%TO.N,LeftHeadphoneOut*%
X101496600Y-62239700D03*
%TO.N,LineInputRight*%
X128661900Y-126544800D03*
%TO.N,LineInputLeft*%
X129264100Y-133409800D03*
X139242100Y-54055700D03*
%TO.N,Net-(Q13-Pad1)*%
X146225100Y-83305000D03*
%TO.N,PowerSupply*%
X113329400Y-41688400D03*
%TO.N,Net-(U1-B)*%
X147341400Y-80250600D03*
X148827800Y-66089000D03*
%TO.N,Net-(U15-IN)*%
X104018300Y-86719100D03*
X105374400Y-87487300D03*
%TO.N,Net-(U5-INPUT)*%
X86763700Y-74714700D03*
%TO.N,-15V*%
X157687000Y-68266700D03*
X158867500Y-71547600D03*
X142911400Y-71234800D03*
%TO.N,GNDREF*%
X142911400Y-88662800D03*
%TO.N,0*%
X74872800Y-57070900D03*
X148219500Y-97582000D03*
%TD*%
D36*
%TO.N,Net-(VR1-CW_1)*%
X89250000Y-130850000D02*
X93000000Y-134600000D01*
X89250000Y-126669000D02*
X89250000Y-130850000D01*
X81798100Y-119217100D02*
X89250000Y-126669000D01*
X81798100Y-80746900D02*
X81798100Y-119217100D01*
X67000000Y-65948800D02*
X81798100Y-80746900D01*
X67000000Y-41500000D02*
X67000000Y-65948800D01*
%TO.N,Net-(VR1-CW_2)*%
X77000000Y-41500000D02*
X77955700Y-41500000D01*
X85408800Y-48953100D02*
X77955700Y-41500000D01*
X85408900Y-48953100D02*
X85408800Y-48953100D01*
X85408900Y-119408900D02*
X85408900Y-48953100D01*
X93000000Y-127000000D02*
X85408900Y-119408900D01*
%TO.N,Net-(U4-BASE)*%
X146250000Y-122653200D02*
X146250000Y-131425000D01*
X147860400Y-121042800D02*
X146250000Y-122653200D01*
%TO.N,Net-(U3--IN)*%
X142567000Y-110019400D02*
X142567000Y-109019200D01*
X142567000Y-97189600D02*
X142567000Y-98189800D01*
X143567200Y-99190000D02*
X142567000Y-98189800D01*
X143567200Y-108019000D02*
X143567200Y-99190000D01*
X142567000Y-109019200D02*
X143567200Y-108019000D01*
X151916400Y-113620500D02*
X149640100Y-111344200D01*
X151916400Y-122172600D02*
X151916400Y-113620500D01*
%TO.N,Net-(Q1-Pad1)*%
X155544900Y-134084900D02*
X159460000Y-138000000D01*
X155544900Y-120512400D02*
X155544900Y-134084900D01*
X155332400Y-120299900D02*
X155544900Y-120512400D01*
X155332400Y-119801700D02*
X155332400Y-120299900D01*
X155438600Y-119695500D02*
X155332400Y-119801700D01*
X155438600Y-115916100D02*
X155438600Y-119695500D01*
X155143300Y-115620800D02*
X155438600Y-115916100D01*
%TO.N,Net-(U4-COLLECTOR)*%
X148672000Y-132813000D02*
X148672000Y-121113500D01*
X147520000Y-133965000D02*
X148672000Y-132813000D01*
%TO.N,Net-(U7-B)*%
X155934100Y-120050800D02*
X155996800Y-120050800D01*
X155996800Y-117117700D02*
X155996800Y-120050800D01*
X160730000Y-112384500D02*
X155996800Y-117117700D01*
X160504600Y-136730000D02*
X160730000Y-136730000D01*
X155996800Y-132222200D02*
X160504600Y-136730000D01*
X155996800Y-120050800D02*
X155996800Y-132222200D01*
X155934100Y-120050800D02*
X155996800Y-120050800D01*
%TO.N,Net-(U4-EMITTER)*%
X140577300Y-128498600D02*
X144980000Y-132901300D01*
X140577300Y-115932200D02*
X140577300Y-128498600D01*
X139398300Y-114753200D02*
X140577300Y-115932200D01*
X144980000Y-133965000D02*
X144980000Y-132901300D01*
X148821300Y-106641900D02*
X153997000Y-101466200D01*
X148821300Y-112158200D02*
X148821300Y-106641900D01*
%TO.N,Net-(CR13-Pad1)*%
X161004100Y-138995900D02*
X162000000Y-138000000D01*
X159076300Y-138995900D02*
X161004100Y-138995900D01*
X152580300Y-132499900D02*
X159076300Y-138995900D01*
X152580300Y-107159500D02*
X152580300Y-132499900D01*
X153997000Y-105742800D02*
X152580300Y-107159500D01*
%TO.N,Net-(U6--IN)*%
X142248500Y-61868200D02*
X143248700Y-60868000D01*
X142248500Y-66420600D02*
X142248500Y-61868200D01*
X143248700Y-67420800D02*
X142248500Y-66420600D01*
X143248700Y-68421000D02*
X143248700Y-67420800D01*
X143248700Y-59867800D02*
X143248700Y-60868000D01*
X156182600Y-70664500D02*
X155287000Y-69768900D01*
X156182600Y-79266900D02*
X156182600Y-70664500D01*
X157792200Y-80876500D02*
X156182600Y-79266900D01*
%TO.N,Net-(U9-BASE)*%
X146588500Y-59404800D02*
X154678700Y-51314600D01*
X146588500Y-82817500D02*
X146588500Y-59404800D01*
X146931700Y-83160700D02*
X146588500Y-82817500D01*
X146931700Y-85550000D02*
X146931700Y-83160700D01*
%TO.N,RightHeadphoneOut*%
X152967000Y-67093500D02*
X147190200Y-61316700D01*
X152967000Y-97963400D02*
X152967000Y-67093500D01*
X155011900Y-100008300D02*
X152967000Y-97963400D01*
X155011900Y-109004500D02*
X155011900Y-100008300D01*
X153997000Y-110019400D02*
X155011900Y-109004500D01*
X152991200Y-111025200D02*
X153997000Y-110019400D01*
X152991200Y-126120000D02*
X152991200Y-111025200D01*
X153997000Y-127125800D02*
X152991200Y-126120000D01*
%TO.N,LeftHeadphoneOut*%
X154678700Y-68421000D02*
X154678700Y-72697600D01*
X101496600Y-54484100D02*
X101496600Y-62239700D01*
X99500000Y-52487500D02*
X101496600Y-54484100D01*
X99500000Y-51500000D02*
X99500000Y-52487500D01*
%TO.N,LineInputRight*%
X127318300Y-101618600D02*
X127318300Y-102733100D01*
X129063600Y-134060000D02*
X129063600Y-136576900D01*
X129063500Y-134060000D02*
X129063600Y-134060000D01*
X128661900Y-133658400D02*
X129063500Y-134060000D01*
X128661900Y-126544800D02*
X128661900Y-133658400D01*
X128661900Y-104076700D02*
X128661900Y-126544800D01*
X127318300Y-102733100D02*
X128661900Y-104076700D01*
%TO.N,LineInputLeft*%
X129745300Y-132928600D02*
X129745300Y-90701900D01*
X129264100Y-133409800D02*
X129745300Y-132928600D01*
X126885500Y-57972600D02*
X128000000Y-56858100D01*
X126885500Y-87842100D02*
X126885500Y-57972600D01*
X129745300Y-90701900D02*
X126885500Y-87842100D01*
X128000000Y-55743600D02*
X128000000Y-56858100D01*
X139242100Y-52203300D02*
X139242100Y-54055700D01*
X140080000Y-51365400D02*
X139242100Y-52203300D01*
%TO.N,Net-(Q13-Pad1)*%
X146061700Y-59404400D02*
X143248700Y-56591400D01*
X146061700Y-83141600D02*
X146061700Y-59404400D01*
X146225100Y-83305000D02*
X146061700Y-83141600D01*
X143248700Y-55591200D02*
X143248700Y-56591400D01*
%TO.N,Net-(J2-Pad3)*%
X97955700Y-42548300D02*
X111184000Y-55776600D01*
X97955700Y-41500000D02*
X97955700Y-42548300D01*
X97000000Y-41500000D02*
X97955700Y-41500000D01*
%TO.N,PowerSupply*%
X113329400Y-62372400D02*
X113329400Y-41688400D01*
X110580000Y-65121800D02*
X113329400Y-62372400D01*
%TO.N,Net-(U1-B)*%
X148201700Y-88090000D02*
X148201700Y-82035800D01*
X148201700Y-82035800D02*
X148201700Y-81994500D01*
X148201700Y-81994500D02*
X148201700Y-81409700D01*
X148201700Y-81409700D02*
X148201700Y-81110900D01*
X148201700Y-81110900D02*
X147341400Y-80250600D01*
X148827800Y-78764200D02*
X148827800Y-66089000D01*
X147341400Y-80250600D02*
X148827800Y-78764200D01*
%TO.N,Net-(U9-EMITTER)*%
X145661700Y-88090000D02*
X145661700Y-87026300D01*
X145058300Y-86422900D02*
X145661700Y-87026300D01*
X145058300Y-81199000D02*
X145058300Y-86422900D01*
X141493900Y-77634600D02*
X145058300Y-81199000D01*
X140080000Y-77634600D02*
X141493900Y-77634600D01*
%TO.N,Net-(U2-B)*%
X161411700Y-72995900D02*
X161411700Y-90855000D01*
%TO.N,Net-(CR5-Pad1)*%
X129114500Y-75425500D02*
X140080000Y-86391000D01*
X129114500Y-71107200D02*
X129114500Y-75425500D01*
X128000000Y-69992700D02*
X129114500Y-71107200D01*
X128000000Y-68878200D02*
X128000000Y-69992700D01*
%TO.N,Net-(CR4-Pad1)*%
X162681700Y-72147400D02*
X154678700Y-64144400D01*
X162681700Y-92125000D02*
X162681700Y-72147400D01*
%TO.N,Net-(U15-ADJ)*%
X100874900Y-96950400D02*
X102116400Y-96950400D01*
X102116400Y-92068500D02*
X102116400Y-96950400D01*
X104714900Y-89470000D02*
X102116400Y-92068500D01*
X104714900Y-86284800D02*
X104714900Y-89470000D01*
X108418700Y-82581000D02*
X104714900Y-86284800D01*
%TO.N,Net-(U5-ADJ)*%
X96988700Y-98223500D02*
X96988700Y-91134200D01*
X100811400Y-102046200D02*
X96988700Y-98223500D01*
X100811400Y-103173400D02*
X100811400Y-102046200D01*
%TO.N,Net-(U15-IN)*%
X104018300Y-76061700D02*
X110580000Y-69500000D01*
X104018300Y-86719100D02*
X104018300Y-76061700D01*
X105374400Y-94990900D02*
X103414900Y-96950400D01*
X105374400Y-87487300D02*
X105374400Y-94990900D01*
%TO.N,Net-(U5-INPUT)*%
X86953400Y-74525000D02*
X86953400Y-68944500D01*
X86763700Y-74714700D02*
X86953400Y-74525000D01*
X99614500Y-67350800D02*
X98500000Y-66236300D01*
X99614500Y-98055100D02*
X99614500Y-67350800D01*
X100948000Y-99388600D02*
X99614500Y-98055100D01*
X102106600Y-99388600D02*
X100948000Y-99388600D01*
X105891400Y-103173400D02*
X102106600Y-99388600D01*
X98500000Y-65121800D02*
X98500000Y-66236300D01*
X86763700Y-74714700D02*
X86953400Y-74714700D01*
X86953400Y-74714700D02*
X86763700Y-74714700D01*
%TO.N,-15V*%
X143248700Y-51314600D02*
X143248700Y-52314800D01*
X162000000Y-106244700D02*
X161374400Y-105619100D01*
X162000000Y-117600900D02*
X162000000Y-106244700D01*
X163270000Y-118870900D02*
X162000000Y-117600900D01*
X142567000Y-116886200D02*
X142567000Y-118572600D01*
X140977500Y-115296700D02*
X142567000Y-116886200D01*
X140977500Y-103197800D02*
X140977500Y-115296700D01*
X139398300Y-101618600D02*
X140977500Y-103197800D01*
X83587900Y-92473200D02*
X83587900Y-91523800D01*
X110580000Y-92325300D02*
X110580000Y-78256400D01*
X105954900Y-96950400D02*
X110580000Y-92325300D01*
X163270000Y-125672000D02*
X163270000Y-118870900D01*
X157110500Y-131831500D02*
X163270000Y-125672000D01*
X157792200Y-98316400D02*
X157792200Y-85956500D01*
X161374400Y-101898600D02*
X157792200Y-98316400D01*
X161374400Y-105619100D02*
X161374400Y-101898600D01*
X163951700Y-61639700D02*
X162056100Y-59744100D01*
X163951700Y-66509500D02*
X163951700Y-61639700D01*
X84537300Y-90574400D02*
X83587900Y-91523800D01*
X84537300Y-88033500D02*
X84537300Y-90574400D01*
X82815100Y-86311300D02*
X84537300Y-88033500D01*
X82815000Y-86311300D02*
X82815100Y-86311300D01*
X82815000Y-76719400D02*
X82815000Y-86311300D01*
X79596100Y-73500500D02*
X82815000Y-76719400D01*
X158867500Y-69447200D02*
X158867500Y-71547600D01*
X157687000Y-68266700D02*
X158867500Y-69447200D01*
X158867500Y-84881200D02*
X157792200Y-85956500D01*
X158867500Y-71547600D02*
X158867500Y-84881200D01*
X140080000Y-55483500D02*
X143248700Y-52314800D01*
X140080000Y-55743600D02*
X140080000Y-55483500D01*
X141251500Y-69574900D02*
X142911400Y-71234800D01*
X141251500Y-56915100D02*
X141251500Y-69574900D01*
X140080000Y-55743600D02*
X141251500Y-56915100D01*
X157687000Y-68266700D02*
X157917800Y-68266700D01*
X157917800Y-68266700D02*
X157687000Y-68266700D01*
%TO.N,GNDREF*%
X79596100Y-89590900D02*
X79596100Y-94636100D01*
X77596100Y-87590900D02*
X79596100Y-89590900D01*
X96988700Y-86857600D02*
X96988700Y-82581000D01*
X96988700Y-80882200D02*
X96988700Y-82581000D01*
X98500000Y-79370900D02*
X96988700Y-80882200D01*
X98500000Y-78256400D02*
X98500000Y-79370900D01*
X153000000Y-38000000D02*
X153000000Y-39426700D01*
X143248700Y-81250800D02*
X143248700Y-82251000D01*
X142567000Y-101466200D02*
X142567000Y-100466000D01*
X77596100Y-82545700D02*
X77596100Y-87590900D01*
X79596100Y-80545700D02*
X77596100Y-82545700D01*
X93159900Y-67741800D02*
X91957200Y-68944500D01*
X93159900Y-38615600D02*
X93159900Y-67741800D01*
X92000000Y-37455700D02*
X93159900Y-38615600D01*
X92000000Y-36500000D02*
X92000000Y-37455700D01*
X154434100Y-96752500D02*
X154434100Y-89763100D01*
X153997000Y-97189600D02*
X154434100Y-96752500D01*
X159374400Y-102567000D02*
X159374400Y-105619100D01*
X153997000Y-97189600D02*
X159374400Y-102567000D01*
X91957200Y-75964300D02*
X91957200Y-68944500D01*
X86953400Y-80968100D02*
X91957200Y-75964300D01*
X79596100Y-71500500D02*
X77596100Y-73500500D01*
X79596100Y-66455300D02*
X79596100Y-71500500D01*
X155835000Y-58711500D02*
X154678700Y-59867800D01*
X155835000Y-42261700D02*
X155835000Y-58711500D01*
X153000000Y-39426700D02*
X155835000Y-42261700D01*
X88000000Y-127000000D02*
X88000000Y-134600000D01*
X79596100Y-99681300D02*
X79596100Y-94636100D01*
X77596100Y-101681300D02*
X79596100Y-99681300D01*
X77596100Y-116596100D02*
X77596100Y-101681300D01*
X88000000Y-127000000D02*
X77596100Y-116596100D01*
X109456300Y-75001900D02*
X110580000Y-73878200D01*
X109456300Y-90096600D02*
X109456300Y-75001900D01*
X108418700Y-91134200D02*
X109456300Y-90096600D01*
X141566800Y-99465800D02*
X142567000Y-100466000D01*
X141566800Y-90007400D02*
X141566800Y-99465800D01*
X142911400Y-88662800D02*
X141566800Y-90007400D01*
X142911400Y-82588300D02*
X142911400Y-88662800D01*
X143248700Y-82251000D02*
X142911400Y-82588300D01*
X153457200Y-61089300D02*
X154678700Y-59867800D01*
X153457200Y-88786200D02*
X153457200Y-61089300D01*
X154434100Y-89763100D02*
X153457200Y-88786200D01*
%TO.N,+15V*%
X94240100Y-86028000D02*
X91461900Y-88806200D01*
X94240100Y-79252600D02*
X94240100Y-86028000D01*
X98500000Y-74992700D02*
X94240100Y-79252600D01*
X98500000Y-73878200D02*
X98500000Y-74992700D01*
X161056100Y-53698900D02*
X160056100Y-52698900D01*
X161056100Y-63684700D02*
X161056100Y-53698900D01*
X162823400Y-65452000D02*
X161056100Y-63684700D01*
X162823400Y-67232200D02*
X162823400Y-65452000D01*
X163951700Y-68360500D02*
X162823400Y-67232200D01*
X163951700Y-72995900D02*
X163951700Y-68360500D01*
X164540000Y-113654500D02*
X163270000Y-112384500D01*
X164540000Y-120541700D02*
X164540000Y-113654500D01*
X165829100Y-121830800D02*
X164540000Y-120541700D01*
X165829100Y-125652900D02*
X165829100Y-121830800D01*
X164730500Y-126751500D02*
X165829100Y-125652900D01*
X165412200Y-80876500D02*
X163951700Y-80876500D01*
X163951700Y-80876500D02*
X163951700Y-72995900D01*
X163270000Y-102469500D02*
X163270000Y-112384500D01*
X159374400Y-98573900D02*
X163270000Y-102469500D01*
X163951700Y-93996600D02*
X163951700Y-80876500D01*
X159374400Y-98573900D02*
X163951700Y-93996600D01*
X155000000Y-130139300D02*
X153752400Y-131386900D01*
X155000000Y-120535500D02*
X155000000Y-130139300D01*
X154930700Y-120466200D02*
X155000000Y-120535500D01*
X154930700Y-119635400D02*
X154930700Y-120466200D01*
X155000000Y-119566100D02*
X154930700Y-119635400D01*
X155000000Y-116670000D02*
X155000000Y-119566100D01*
X153997000Y-115667000D02*
X155000000Y-116670000D01*
X153997000Y-114296000D02*
X153997000Y-115667000D01*
%TO.N,0*%
X74872800Y-40328500D02*
X74872800Y-57070900D01*
X72000000Y-37455700D02*
X74872800Y-40328500D01*
X72000000Y-36500000D02*
X72000000Y-37455700D01*
X142567000Y-105742800D02*
X142567000Y-106743000D01*
X151934100Y-85511900D02*
X151934100Y-85992900D01*
X141786600Y-115339300D02*
X148219500Y-115339300D01*
X141566800Y-115119500D02*
X141786600Y-115339300D01*
X141566800Y-107743200D02*
X141566800Y-115119500D01*
X142567000Y-106743000D02*
X141566800Y-107743200D01*
X143248700Y-64144400D02*
X143248700Y-65144600D01*
X151934100Y-85992900D02*
X148261500Y-89665500D01*
X148219500Y-115339300D02*
X148219500Y-97582000D01*
X148219500Y-89707500D02*
X148261500Y-89665500D01*
X148219500Y-97582000D02*
X148219500Y-89707500D01*
X146790200Y-88194200D02*
X148261500Y-89665500D01*
X146790200Y-87027900D02*
X146790200Y-88194200D01*
X145622200Y-85859900D02*
X146790200Y-87027900D01*
X145622200Y-67518100D02*
X145622200Y-85859900D01*
X143248700Y-65144600D02*
X145622200Y-67518100D01*
X151252400Y-118372200D02*
X151252400Y-131386900D01*
X148219500Y-115339300D02*
X151252400Y-118372200D01*
%TD*%
M02*
