%TF.GenerationSoftware,KiCad,Pcbnew,9.0.7*%
%TF.CreationDate,2026-03-24T23:58:10-07:00*%
%TF.ProjectId,PCBTest,50434254-6573-4742-9e6b-696361645f70,rev?*%
%TF.SameCoordinates,Original*%
%TF.FileFunction,Copper,L1,Top*%
%TF.FilePolarity,Positive*%
%FSLAX46Y46*%
G04 Gerber Fmt 4.6, Leading zero omitted, Abs format (unit mm)*
G04 Created by KiCad (PCBNEW 9.0.7) date 2026-03-24 23:58:10*
%MOMM*%
%LPD*%
G01*
G04 APERTURE LIST*
%TA.AperFunction,ComponentPad*%
%ADD10C,1.381000*%
%TD*%
%TA.AperFunction,ComponentPad*%
%ADD11R,1.524000X1.524000*%
%TD*%
%TA.AperFunction,ComponentPad*%
%ADD12C,1.524000*%
%TD*%
%TA.AperFunction,ComponentPad*%
%ADD13R,1.625600X1.625600*%
%TD*%
%TA.AperFunction,ComponentPad*%
%ADD14C,1.625600*%
%TD*%
%TA.AperFunction,ComponentPad*%
%ADD15O,2.616000X1.308000*%
%TD*%
%TA.AperFunction,ComponentPad*%
%ADD16O,1.308000X2.616000*%
%TD*%
%TA.AperFunction,ComponentPad*%
%ADD17C,1.270000*%
%TD*%
%TA.AperFunction,ComponentPad*%
%ADD18C,1.320800*%
%TD*%
%TA.AperFunction,ComponentPad*%
%ADD19C,2.006600*%
%TD*%
%TA.AperFunction,ComponentPad*%
%ADD20C,1.295400*%
%TD*%
%TA.AperFunction,ComponentPad*%
%ADD21R,1.397000X1.397000*%
%TD*%
%TA.AperFunction,ComponentPad*%
%ADD22C,1.397000*%
%TD*%
%TA.AperFunction,ComponentPad*%
%ADD23R,1.320800X1.320800*%
%TD*%
%TA.AperFunction,ComponentPad*%
%ADD24R,1.295400X1.295400*%
%TD*%
%TA.AperFunction,ComponentPad*%
%ADD25R,1.879600X1.879600*%
%TD*%
%TA.AperFunction,ComponentPad*%
%ADD26C,1.879600*%
%TD*%
%TA.AperFunction,ComponentPad*%
%ADD27C,1.651000*%
%TD*%
%TA.AperFunction,ComponentPad*%
%ADD28C,1.508000*%
%TD*%
%TA.AperFunction,ComponentPad*%
%ADD29R,1.371600X1.371600*%
%TD*%
%TA.AperFunction,ComponentPad*%
%ADD30C,1.371600*%
%TD*%
%TA.AperFunction,ComponentPad*%
%ADD31R,1.651000X1.651000*%
%TD*%
%TA.AperFunction,SMDPad,CuDef*%
%ADD32R,5.334000X5.232400*%
%TD*%
%TA.AperFunction,ComponentPad*%
%ADD33O,5.000000X2.500000*%
%TD*%
%TA.AperFunction,ComponentPad*%
%ADD34O,4.500000X2.250000*%
%TD*%
%TA.AperFunction,ComponentPad*%
%ADD35O,2.250000X4.500000*%
%TD*%
%TA.AperFunction,ViaPad*%
%ADD36C,0.600000*%
%TD*%
%TA.AperFunction,Conductor*%
%ADD37C,0.200000*%
%TD*%
G04 APERTURE END LIST*
D10*
%TO.P,VR1,R11,CCW_1*%
%TO.N,GNDREF*%
X88000000Y-134600000D03*
%TO.P,VR1,R12,WIPER_1*%
%TO.N,LineInputLeft*%
X90500000Y-134600000D03*
%TO.P,VR1,R13,CW_1*%
%TO.N,Net-(VR1-CW_1)*%
X93000000Y-134600000D03*
%TO.P,VR1,SW1,CCW_2*%
%TO.N,GNDREF*%
X88000000Y-127000000D03*
%TO.P,VR1,SW2,WIPER_2*%
%TO.N,LineInputRight*%
X90500000Y-127000000D03*
%TO.P,VR1,SW3,CW_2*%
%TO.N,Net-(VR1-CW_2)*%
X93000000Y-127000000D03*
%TD*%
D11*
%TO.P,U9,1,EMITTER*%
%TO.N,Net-(U9-EMITTER)*%
X145661700Y-88090000D03*
D12*
%TO.P,U9,2,BASE*%
%TO.N,Net-(U9-BASE)*%
X146931700Y-85550000D03*
%TO.P,U9,3,COLLECTOR*%
%TO.N,Net-(U1-B)*%
X148201700Y-88090000D03*
%TD*%
D13*
%TO.P,CR12,1*%
%TO.N,Net-(CR12-Pad1)*%
X127318300Y-105996800D03*
D14*
%TO.P,CR12,2*%
%TO.N,+15V*%
X139398300Y-105996800D03*
%TD*%
D15*
%TO.P,J2,1*%
%TO.N,GNDREF*%
X92000000Y-36500000D03*
D16*
%TO.P,J2,2*%
%TO.N,Net-(J2-Pad2)*%
X87000000Y-41500000D03*
%TO.P,J2,3*%
%TO.N,Net-(J2-Pad3)*%
X97000000Y-41500000D03*
%TD*%
D17*
%TO.P,C19,1*%
%TO.N,+15V*%
X160056100Y-52698900D03*
%TO.P,C19,2*%
%TO.N,0*%
X162056100Y-52698900D03*
%TD*%
D18*
%TO.P,SW1,1,1*%
%TO.N,12 VAC*%
X55987600Y-54205900D03*
%TO.P,SW1,2,2*%
%TO.N,Net-(F1-Pad1)*%
X55987600Y-56205900D03*
%TO.P,SW1,3,3*%
%TO.N,unconnected-(SW1-Pad3)*%
X55987600Y-58205901D03*
D19*
%TO.P,SW1,4*%
%TO.N,N/C*%
X55987600Y-52105901D03*
%TO.P,SW1,5*%
X55987600Y-60305899D03*
%TD*%
D20*
%TO.P,Q1,1,1*%
%TO.N,Net-(Q1-Pad1)*%
X159460000Y-138000000D03*
%TO.P,Q1,2,2*%
%TO.N,Net-(U7-B)*%
X160730000Y-136730000D03*
%TO.P,Q1,3,3*%
%TO.N,Net-(CR13-Pad1)*%
X162000000Y-138000000D03*
%TD*%
D21*
%TO.P,R24,1*%
%TO.N,Net-(Q13-Pad1)*%
X143248700Y-55591200D03*
D22*
%TO.P,R24,2*%
%TO.N,+15V*%
X154678700Y-55591200D03*
%TD*%
D23*
%TO.P,C20,1*%
%TO.N,GNDREF*%
X127245300Y-90701900D03*
D18*
%TO.P,C20,2*%
%TO.N,LineInputLeft*%
X129745300Y-90701900D03*
%TD*%
D23*
%TO.P,C2,1*%
%TO.N,GNDREF*%
X126563600Y-136576900D03*
D18*
%TO.P,C2,2*%
%TO.N,LineInputRight*%
X129063600Y-136576900D03*
%TD*%
D13*
%TO.P,CR20,1*%
%TO.N,PowerSupply*%
X98500000Y-69500000D03*
D14*
%TO.P,CR20,2*%
%TO.N,Net-(U15-IN)*%
X110580000Y-69500000D03*
%TD*%
D24*
%TO.P,R41,1*%
%TO.N,Net-(U5-ADJ)*%
X83587900Y-88806200D03*
D20*
%TO.P,R41,2*%
%TO.N,+15V*%
X91461900Y-88806200D03*
%TD*%
D13*
%TO.P,CR8,1*%
%TO.N,Net-(U1-B)*%
X128000000Y-82012800D03*
D14*
%TO.P,CR8,2*%
%TO.N,Net-(U6-OUTPUT)*%
X140080000Y-82012800D03*
%TD*%
D13*
%TO.P,CR10,1*%
%TO.N,+15V*%
X127318300Y-97240400D03*
D14*
%TO.P,CR10,2*%
%TO.N,LineInputRight*%
X139398300Y-97240400D03*
%TD*%
D24*
%TO.P,R42,1*%
%TO.N,-15V*%
X83587900Y-92473200D03*
D20*
%TO.P,R42,2*%
%TO.N,Net-(U15-ADJ)*%
X91461900Y-92473200D03*
%TD*%
D13*
%TO.P,CR13,1*%
%TO.N,Net-(CR13-Pad1)*%
X127318300Y-110375000D03*
D14*
%TO.P,CR13,2*%
%TO.N,Net-(CR12-Pad1)*%
X139398300Y-110375000D03*
%TD*%
D21*
%TO.P,R28,1*%
%TO.N,Net-(U6--IN)*%
X143248700Y-68421000D03*
D22*
%TO.P,R28,2*%
%TO.N,LeftHeadphoneOut*%
X154678700Y-68421000D03*
%TD*%
D25*
%TO.P,U15,1,ADJ*%
%TO.N,Net-(U15-ADJ)*%
X100874900Y-96950400D03*
D26*
%TO.P,U15,2,IN*%
%TO.N,Net-(U15-IN)*%
X103414900Y-96950400D03*
%TO.P,U15,3,OUT*%
%TO.N,-15V*%
X105954900Y-96950400D03*
%TD*%
D27*
%TO.P,U8,1,B*%
%TO.N,Net-(U4-COLLECTOR)*%
X160730000Y-118870900D03*
%TO.P,U8,2,C*%
%TO.N,-15V*%
X163270000Y-118870900D03*
%TO.P,U8,3,E*%
%TO.N,Net-(U8-E)*%
X165810000Y-118870900D03*
%TD*%
D11*
%TO.P,U4,1,EMITTER*%
%TO.N,Net-(U4-EMITTER)*%
X144980000Y-133965000D03*
D12*
%TO.P,U4,2,BASE*%
%TO.N,Net-(U4-BASE)*%
X146250000Y-131425000D03*
%TO.P,U4,3,COLLECTOR*%
%TO.N,Net-(U4-COLLECTOR)*%
X147520000Y-133965000D03*
%TD*%
D13*
%TO.P,CR1,1*%
%TO.N,+15V*%
X128000000Y-51365400D03*
D14*
%TO.P,CR1,2*%
%TO.N,LineInputLeft*%
X140080000Y-51365400D03*
%TD*%
D13*
%TO.P,CR11,1*%
%TO.N,LineInputRight*%
X127318300Y-101618600D03*
D14*
%TO.P,CR11,2*%
%TO.N,-15V*%
X139398300Y-101618600D03*
%TD*%
D21*
%TO.P,R11,1*%
%TO.N,RightHeadphoneOut*%
X142567000Y-122849200D03*
D22*
%TO.P,R11,2*%
%TO.N,Net-(U7-E)*%
X153997000Y-122849200D03*
%TD*%
D21*
%TO.P,R33,1*%
%TO.N,GNDREF*%
X143248700Y-81250800D03*
D22*
%TO.P,R33,2*%
%TO.N,Net-(U9-EMITTER)*%
X154678700Y-81250800D03*
%TD*%
D28*
%TO.P,D1,1*%
%TO.N,+15V*%
X56460000Y-83000000D03*
%TO.P,D1,2*%
%TO.N,Net-(D1-Pad2)*%
X59000000Y-83000000D03*
%TD*%
D17*
%TO.P,C34,1*%
%TO.N,GNDREF*%
X77596100Y-101681300D03*
%TO.P,C34,2*%
%TO.N,Net-(U15-ADJ)*%
X79596100Y-101681300D03*
%TD*%
D21*
%TO.P,R7,1*%
%TO.N,0*%
X142567000Y-105742800D03*
D22*
%TO.P,R7,2*%
%TO.N,Net-(CR13-Pad1)*%
X153997000Y-105742800D03*
%TD*%
D23*
%TO.P,C24,1*%
%TO.N,0*%
X151934100Y-85511900D03*
D18*
%TO.P,C24,2*%
%TO.N,+15V*%
X154434100Y-85511900D03*
%TD*%
D20*
%TO.P,Q13,1,1*%
%TO.N,Net-(Q13-Pad1)*%
X160141700Y-92125000D03*
%TO.P,Q13,2,2*%
%TO.N,Net-(U2-B)*%
X161411700Y-90855000D03*
%TO.P,Q13,3,3*%
%TO.N,Net-(CR4-Pad1)*%
X162681700Y-92125000D03*
%TD*%
D21*
%TO.P,R32,1*%
%TO.N,LeftHeadphoneOut*%
X143248700Y-76974200D03*
D22*
%TO.P,R32,2*%
%TO.N,Net-(U2-E)*%
X154678700Y-76974200D03*
%TD*%
D17*
%TO.P,C30,1*%
%TO.N,GNDREF*%
X77596100Y-73500500D03*
%TO.P,C30,2*%
%TO.N,-15V*%
X79596100Y-73500500D03*
%TD*%
D21*
%TO.P,R31,1*%
%TO.N,Net-(U1-E)*%
X143248700Y-72697600D03*
D22*
%TO.P,R31,2*%
%TO.N,LeftHeadphoneOut*%
X154678700Y-72697600D03*
%TD*%
D13*
%TO.P,CR5,1*%
%TO.N,Net-(CR5-Pad1)*%
X128000000Y-68878200D03*
D14*
%TO.P,CR5,2*%
%TO.N,Net-(U2-B)*%
X140080000Y-68878200D03*
%TD*%
D21*
%TO.P,R9,1*%
%TO.N,Net-(Q1-Pad1)*%
X142567000Y-114296000D03*
D22*
%TO.P,R9,2*%
%TO.N,+15V*%
X153997000Y-114296000D03*
%TD*%
D13*
%TO.P,CR22,1*%
%TO.N,GNDREF*%
X98500000Y-78256400D03*
D14*
%TO.P,CR22,2*%
%TO.N,-15V*%
X110580000Y-78256400D03*
%TD*%
D21*
%TO.P,R39,1*%
%TO.N,GNDREF*%
X96988700Y-86857600D03*
D22*
%TO.P,R39,2*%
%TO.N,Net-(D1-Pad2)*%
X108418700Y-86857600D03*
%TD*%
D21*
%TO.P,R22,1*%
%TO.N,GNDREF*%
X96988700Y-82581000D03*
D22*
%TO.P,R22,2*%
%TO.N,Net-(U15-ADJ)*%
X108418700Y-82581000D03*
%TD*%
D17*
%TO.P,C32,1*%
%TO.N,GNDREF*%
X77596100Y-87590900D03*
%TO.P,C32,2*%
%TO.N,Net-(U15-IN)*%
X79596100Y-87590900D03*
%TD*%
D23*
%TO.P,C3,1*%
%TO.N,-15V*%
X151252400Y-135638100D03*
D18*
%TO.P,C3,2*%
%TO.N,GNDREF*%
X153752400Y-135638100D03*
%TD*%
D27*
%TO.P,U7,1,B*%
%TO.N,Net-(U7-B)*%
X160730000Y-112384500D03*
%TO.P,U7,2,C*%
%TO.N,+15V*%
X163270000Y-112384500D03*
%TO.P,U7,3,E*%
%TO.N,Net-(U7-E)*%
X165810000Y-112384500D03*
%TD*%
D21*
%TO.P,R25,1*%
%TO.N,Net-(U6--IN)*%
X143248700Y-59867800D03*
D22*
%TO.P,R25,2*%
%TO.N,GNDREF*%
X154678700Y-59867800D03*
%TD*%
D15*
%TO.P,J1,1*%
%TO.N,0*%
X72000000Y-36500000D03*
D16*
%TO.P,J1,2*%
%TO.N,Net-(VR1-CW_1)*%
X67000000Y-41500000D03*
%TO.P,J1,3*%
%TO.N,Net-(VR1-CW_2)*%
X77000000Y-41500000D03*
%TD*%
D17*
%TO.P,C29,1*%
%TO.N,+15V*%
X77596100Y-66455300D03*
%TO.P,C29,2*%
%TO.N,GNDREF*%
X79596100Y-66455300D03*
%TD*%
D29*
%TO.P,R4,1*%
%TO.N,RightHeadphoneOut*%
X99500000Y-55776600D03*
D30*
%TO.P,R4,2*%
%TO.N,Net-(J2-Pad3)*%
X111184000Y-55776600D03*
%TD*%
D11*
%TO.P,U6,1,OFFSETNULL*%
%TO.N,unconnected-(U6-OFFSETNULL-Pad1)*%
X157792200Y-78336500D03*
D12*
%TO.P,U6,2,-IN*%
%TO.N,Net-(U6--IN)*%
X157792200Y-80876500D03*
%TO.P,U6,3,+IN*%
%TO.N,LineInputLeft*%
X157792200Y-83416500D03*
%TO.P,U6,4,-VS*%
%TO.N,-15V*%
X157792200Y-85956500D03*
%TO.P,U6,5,OFFSETNULL*%
%TO.N,unconnected-(U6-OFFSETNULL-Pad5)*%
X165412200Y-85956500D03*
%TO.P,U6,6,OUTPUT*%
%TO.N,Net-(U6-OUTPUT)*%
X165412200Y-83416500D03*
%TO.P,U6,7,+VS*%
%TO.N,+15V*%
X165412200Y-80876500D03*
%TO.P,U6,8,DECOMP_DISTORT_NEUTRA*%
%TO.N,unconnected-(U6-DECOMP_DISTORT_NEUTRA-Pad8)*%
X165412200Y-78336500D03*
%TD*%
D29*
%TO.P,R3,1*%
%TO.N,LeftHeadphoneOut*%
X99500000Y-51500000D03*
D30*
%TO.P,R3,2*%
%TO.N,Net-(J2-Pad2)*%
X111184000Y-51500000D03*
%TD*%
D11*
%TO.P,U3,1,OFFSETNULL*%
%TO.N,unconnected-(U3-OFFSETNULL-Pad1)*%
X157110500Y-124211500D03*
D12*
%TO.P,U3,2,-IN*%
%TO.N,Net-(U3--IN)*%
X157110500Y-126751500D03*
%TO.P,U3,3,+IN*%
%TO.N,LineInputRight*%
X157110500Y-129291500D03*
%TO.P,U3,4,-VS*%
%TO.N,-15V*%
X157110500Y-131831500D03*
%TO.P,U3,5,OFFSETNULL*%
%TO.N,unconnected-(U3-OFFSETNULL-Pad5)*%
X164730500Y-131831500D03*
%TO.P,U3,6,OUTPUT*%
%TO.N,Net-(U3-OUTPUT)*%
X164730500Y-129291500D03*
%TO.P,U3,7,+VS*%
%TO.N,+15V*%
X164730500Y-126751500D03*
%TO.P,U3,8,DECOMP_DISTORT_NEUTRA*%
%TO.N,unconnected-(U3-DECOMP_DISTORT_NEUTRA-Pad8)*%
X164730500Y-124211500D03*
%TD*%
D30*
%TO.P,C37,1*%
%TO.N,Net-(U5-INPUT)*%
X86953400Y-68944500D03*
%TO.P,C37,2*%
%TO.N,GNDREF*%
X91957200Y-68944500D03*
%TD*%
D23*
%TO.P,C25,1*%
%TO.N,-15V*%
X151934100Y-89763100D03*
D18*
%TO.P,C25,2*%
%TO.N,GNDREF*%
X154434100Y-89763100D03*
%TD*%
D13*
%TO.P,CR16,1*%
%TO.N,Net-(CR16-Pad1)*%
X127318300Y-123509600D03*
D14*
%TO.P,CR16,2*%
%TO.N,Net-(U7-B)*%
X139398300Y-123509600D03*
%TD*%
D21*
%TO.P,R23,1*%
%TO.N,-15V*%
X143248700Y-51314600D03*
D22*
%TO.P,R23,2*%
%TO.N,Net-(U9-BASE)*%
X154678700Y-51314600D03*
%TD*%
D13*
%TO.P,CR6,1*%
%TO.N,-15V*%
X128000000Y-73256400D03*
D14*
%TO.P,CR6,2*%
%TO.N,Net-(CR6-Pad2)*%
X140080000Y-73256400D03*
%TD*%
D21*
%TO.P,R6,1*%
%TO.N,GNDREF*%
X142567000Y-101466200D03*
D22*
%TO.P,R6,2*%
%TO.N,Net-(U4-EMITTER)*%
X153997000Y-101466200D03*
%TD*%
D21*
%TO.P,R8,1*%
%TO.N,Net-(U3--IN)*%
X142567000Y-110019400D03*
D22*
%TO.P,R8,2*%
%TO.N,RightHeadphoneOut*%
X153997000Y-110019400D03*
%TD*%
D27*
%TO.P,U2,1,B*%
%TO.N,Net-(U2-B)*%
X161411700Y-72995900D03*
%TO.P,U2,2,C*%
%TO.N,+15V*%
X163951700Y-72995900D03*
%TO.P,U2,3,E*%
%TO.N,Net-(U2-E)*%
X166491700Y-72995900D03*
%TD*%
D13*
%TO.P,CR7,1*%
%TO.N,Net-(CR6-Pad2)*%
X128000000Y-77634600D03*
D14*
%TO.P,CR7,2*%
%TO.N,Net-(U9-EMITTER)*%
X140080000Y-77634600D03*
%TD*%
D13*
%TO.P,CR17,1*%
%TO.N,Net-(U3-OUTPUT)*%
X127318300Y-127887800D03*
D14*
%TO.P,CR17,2*%
%TO.N,Net-(CR16-Pad1)*%
X139398300Y-127887800D03*
%TD*%
D30*
%TO.P,C38,1*%
%TO.N,GNDREF*%
X86953400Y-80968100D03*
%TO.P,C38,2*%
%TO.N,Net-(U15-IN)*%
X91957200Y-80968100D03*
%TD*%
D31*
%TO.P,U5,1,ADJ*%
%TO.N,Net-(U5-ADJ)*%
X100811400Y-103173400D03*
D27*
%TO.P,U5,2,OUTPUT*%
%TO.N,+15V*%
X103351400Y-103173400D03*
%TO.P,U5,3,INPUT*%
%TO.N,Net-(U5-INPUT)*%
X105891400Y-103173400D03*
%TD*%
D32*
%TO.P,F1,1,1*%
%TO.N,Net-(F1-Pad1)*%
X116500000Y-36000000D03*
%TO.P,F1,2,2*%
%TO.N,PowerSupply*%
X132222600Y-36000000D03*
%TD*%
D13*
%TO.P,CR19,1*%
%TO.N,Net-(U5-INPUT)*%
X98500000Y-65121800D03*
D14*
%TO.P,CR19,2*%
%TO.N,PowerSupply*%
X110580000Y-65121800D03*
%TD*%
D13*
%TO.P,CR4,1*%
%TO.N,Net-(CR4-Pad1)*%
X128000000Y-64500000D03*
D14*
%TO.P,CR4,2*%
%TO.N,Net-(CR3-Pad1)*%
X140080000Y-64500000D03*
%TD*%
D17*
%TO.P,C31,1*%
%TO.N,Net-(U5-INPUT)*%
X77596100Y-80545700D03*
%TO.P,C31,2*%
%TO.N,GNDREF*%
X79596100Y-80545700D03*
%TD*%
D13*
%TO.P,CR2,1*%
%TO.N,LineInputLeft*%
X128000000Y-55743600D03*
D14*
%TO.P,CR2,2*%
%TO.N,-15V*%
X140080000Y-55743600D03*
%TD*%
D13*
%TO.P,CR21,1*%
%TO.N,+15V*%
X98500000Y-73878200D03*
D14*
%TO.P,CR21,2*%
%TO.N,GNDREF*%
X110580000Y-73878200D03*
%TD*%
D17*
%TO.P,C33,1*%
%TO.N,Net-(U5-ADJ)*%
X77596100Y-94636100D03*
%TO.P,C33,2*%
%TO.N,GNDREF*%
X79596100Y-94636100D03*
%TD*%
D13*
%TO.P,CR3,1*%
%TO.N,Net-(CR3-Pad1)*%
X128000000Y-60121800D03*
D14*
%TO.P,CR3,2*%
%TO.N,+15V*%
X140080000Y-60121800D03*
%TD*%
D21*
%TO.P,R10,1*%
%TO.N,-15V*%
X142567000Y-118572600D03*
D22*
%TO.P,R10,2*%
%TO.N,Net-(U4-BASE)*%
X153997000Y-118572600D03*
%TD*%
D21*
%TO.P,R40,1*%
%TO.N,Net-(U5-ADJ)*%
X96988700Y-91134200D03*
D22*
%TO.P,R40,2*%
%TO.N,GNDREF*%
X108418700Y-91134200D03*
%TD*%
D13*
%TO.P,CR15,1*%
%TO.N,-15V*%
X127318300Y-119131400D03*
D14*
%TO.P,CR15,2*%
%TO.N,Net-(CR14-Pad1)*%
X139398300Y-119131400D03*
%TD*%
D13*
%TO.P,CR9,1*%
%TO.N,Net-(U6-OUTPUT)*%
X128000000Y-86391000D03*
D14*
%TO.P,CR9,2*%
%TO.N,Net-(CR5-Pad1)*%
X140080000Y-86391000D03*
%TD*%
D17*
%TO.P,C4,1*%
%TO.N,+15V*%
X159374400Y-98573900D03*
%TO.P,C4,2*%
%TO.N,0*%
X161374400Y-98573900D03*
%TD*%
D21*
%TO.P,R5,1*%
%TO.N,Net-(U3--IN)*%
X142567000Y-97189600D03*
D22*
%TO.P,R5,2*%
%TO.N,GNDREF*%
X153997000Y-97189600D03*
%TD*%
D13*
%TO.P,CR14,1*%
%TO.N,Net-(CR14-Pad1)*%
X127318300Y-114753200D03*
D14*
%TO.P,CR14,2*%
%TO.N,Net-(U4-EMITTER)*%
X139398300Y-114753200D03*
%TD*%
D13*
%TO.P,CR18,1*%
%TO.N,Net-(U4-COLLECTOR)*%
X127318300Y-132266000D03*
D14*
%TO.P,CR18,2*%
%TO.N,Net-(U3-OUTPUT)*%
X139398300Y-132266000D03*
%TD*%
D33*
%TO.P,J5,1*%
%TO.N,12 VAC*%
X153000000Y-44000000D03*
D34*
%TO.P,J5,2*%
%TO.N,GNDREF*%
X153000000Y-38000000D03*
D35*
%TO.P,J5,3*%
%TO.N,unconnected-(J5-Pad3)*%
X148300000Y-41000000D03*
%TD*%
D23*
%TO.P,C1,1*%
%TO.N,0*%
X151252400Y-131386900D03*
D18*
%TO.P,C1,2*%
%TO.N,+15V*%
X153752400Y-131386900D03*
%TD*%
D17*
%TO.P,C5,1*%
%TO.N,GNDREF*%
X159374400Y-105619100D03*
%TO.P,C5,2*%
%TO.N,-15V*%
X161374400Y-105619100D03*
%TD*%
D21*
%TO.P,R26,1*%
%TO.N,0*%
X143248700Y-64144400D03*
D22*
%TO.P,R26,2*%
%TO.N,Net-(CR4-Pad1)*%
X154678700Y-64144400D03*
%TD*%
D17*
%TO.P,C21,1*%
%TO.N,GNDREF*%
X160056100Y-59744100D03*
%TO.P,C21,2*%
%TO.N,-15V*%
X162056100Y-59744100D03*
%TD*%
D21*
%TO.P,R12,1*%
%TO.N,Net-(U8-E)*%
X142567000Y-127125800D03*
D22*
%TO.P,R12,2*%
%TO.N,RightHeadphoneOut*%
X153997000Y-127125800D03*
%TD*%
D27*
%TO.P,U1,1,B*%
%TO.N,Net-(U1-B)*%
X161411700Y-66509500D03*
%TO.P,U1,2,C*%
%TO.N,-15V*%
X163951700Y-66509500D03*
%TO.P,U1,3,E*%
%TO.N,Net-(U1-E)*%
X166491700Y-66509500D03*
%TD*%
D36*
%TO.N,Net-(U4-BASE)*%
X147860400Y-121042800D03*
%TO.N,Net-(U3--IN)*%
X151916400Y-122172600D03*
X149640100Y-111344200D03*
%TO.N,Net-(Q1-Pad1)*%
X155143300Y-115620800D03*
%TO.N,Net-(U4-COLLECTOR)*%
X148672000Y-121113500D03*
%TO.N,Net-(U7-B)*%
X155996800Y-120050800D03*
%TO.N,Net-(U4-EMITTER)*%
X148821300Y-112158200D03*
%TO.N,Net-(U6--IN)*%
X155287000Y-69768900D03*
%TO.N,RightHeadphoneOut*%
X147190200Y-61316700D03*
%TO.N,LeftHeadphoneOut*%
X101496600Y-62239700D03*
%TO.N,LineInputRight*%
X128661900Y-126544800D03*
%TO.N,LineInputLeft*%
X129264100Y-133409800D03*
X139242100Y-54055700D03*
%TO.N,Net-(Q13-Pad1)*%
X146225100Y-83305000D03*
%TO.N,PowerSupply*%
X113329400Y-41688400D03*
%TO.N,Net-(U1-B)*%
X147341400Y-80250600D03*
X148827800Y-66089000D03*
%TO.N,Net-(U15-IN)*%
X104018300Y-86719100D03*
X105374400Y-87487300D03*
%TO.N,Net-(U5-INPUT)*%
X86763700Y-74714700D03*
%TO.N,-15V*%
X157687000Y-68266700D03*
X158867500Y-71547600D03*
X142911400Y-71234800D03*
%TO.N,GNDREF*%
X142911400Y-88662800D03*
%TO.N,0*%
X74872800Y-57070900D03*
X148219500Y-97582000D03*
%TD*%
D37*
%TO.N,Net-(U8-E)*%
X163347300Y-121333600D02*
X165810000Y-118870900D01*
X150870600Y-121333600D02*
X163347300Y-121333600D01*
X150384600Y-121819600D02*
X150870600Y-121333600D01*
X141754900Y-121819600D02*
X150384600Y-121819600D01*
X141165100Y-122409400D02*
X141754900Y-121819600D01*
X141165100Y-124723700D02*
X141165100Y-122409400D01*
X142567000Y-126125600D02*
X141165100Y-124723700D01*
X142567000Y-127125800D02*
X142567000Y-126125600D01*
%TO.N,Net-(U7-E)*%
X166959600Y-113534100D02*
X165810000Y-112384500D01*
X166959600Y-119359900D02*
X166959600Y-113534100D01*
X163470300Y-122849200D02*
X166959600Y-119359900D01*
X153997000Y-122849200D02*
X163470300Y-122849200D01*
%TO.N,Net-(U4-BASE)*%
X150330600Y-118572600D02*
X153997000Y-118572600D01*
X147860400Y-121042800D02*
X150330600Y-118572600D01*
%TO.N,Net-(U3--IN)*%
X151916400Y-122281000D02*
X151916400Y-122172600D01*
X156386900Y-126751500D02*
X151916400Y-122281000D01*
X157110500Y-126751500D02*
X156386900Y-126751500D01*
X148315300Y-110019400D02*
X143567200Y-110019400D01*
X149640100Y-111344200D02*
X148315300Y-110019400D01*
X142567000Y-110019400D02*
X143567200Y-110019400D01*
%TO.N,Net-(Q1-Pad1)*%
X144892000Y-115620800D02*
X143567200Y-114296000D01*
X155143300Y-115620800D02*
X144892000Y-115620800D01*
X142567000Y-114296000D02*
X143567200Y-114296000D01*
%TO.N,Net-(U4-COLLECTOR)*%
X127318300Y-132266000D02*
X128432800Y-132266000D01*
X128971200Y-132266000D02*
X128432800Y-132266000D01*
X130085700Y-133380500D02*
X128971200Y-132266000D01*
X141760400Y-133380500D02*
X130085700Y-133380500D01*
X142239600Y-132901300D02*
X141760400Y-133380500D01*
X146456300Y-132901300D02*
X142239600Y-132901300D01*
X147520000Y-133965000D02*
X146456300Y-132901300D01*
X149073700Y-120711800D02*
X148672000Y-121113500D01*
X158889100Y-120711800D02*
X149073700Y-120711800D01*
X160730000Y-118870900D02*
X158889100Y-120711800D01*
%TO.N,Net-(U3-OUTPUT)*%
X127318300Y-127887800D02*
X128432800Y-127887800D01*
X132811000Y-132266000D02*
X139398300Y-132266000D01*
X128432800Y-127887800D02*
X132811000Y-132266000D01*
X163616300Y-128177300D02*
X164730500Y-129291500D01*
X143487000Y-128177300D02*
X163616300Y-128177300D01*
X139398300Y-132266000D02*
X143487000Y-128177300D01*
%TO.N,Net-(U7-B)*%
X155996800Y-119084900D02*
X155996800Y-120050800D01*
X154484100Y-117572200D02*
X155996800Y-119084900D01*
X149027300Y-117572200D02*
X154484100Y-117572200D01*
X146156900Y-120442600D02*
X149027300Y-117572200D01*
X142465300Y-120442600D02*
X146156900Y-120442600D01*
X139398300Y-123509600D02*
X142465300Y-120442600D01*
%TO.N,Net-(CR16-Pad1)*%
X135020100Y-123509600D02*
X139398300Y-127887800D01*
X127318300Y-123509600D02*
X135020100Y-123509600D01*
%TO.N,Net-(CR14-Pad1)*%
X135020100Y-114753200D02*
X127318300Y-114753200D01*
X139398300Y-119131400D02*
X135020100Y-114753200D01*
%TO.N,Net-(U4-EMITTER)*%
X141993300Y-112158200D02*
X148821300Y-112158200D01*
X139398300Y-114753200D02*
X141993300Y-112158200D01*
%TO.N,Net-(CR13-Pad1)*%
X134093000Y-104714800D02*
X128432800Y-110375000D01*
X152969000Y-104714800D02*
X134093000Y-104714800D01*
X153997000Y-105742800D02*
X152969000Y-104714800D01*
X127318300Y-110375000D02*
X128432800Y-110375000D01*
%TO.N,Net-(CR12-Pad1)*%
X126203800Y-108225800D02*
X127318300Y-107111300D01*
X126203800Y-111365100D02*
X126203800Y-108225800D01*
X126328200Y-111489500D02*
X126203800Y-111365100D01*
X138283800Y-111489500D02*
X126328200Y-111489500D01*
X139398300Y-110375000D02*
X138283800Y-111489500D01*
X127318300Y-105996800D02*
X127318300Y-107111300D01*
%TO.N,12 VAC*%
X109874700Y-54205900D02*
X55987600Y-54205900D01*
X120080600Y-44000000D02*
X109874700Y-54205900D01*
X153000000Y-44000000D02*
X120080600Y-44000000D01*
%TO.N,Net-(U2-E)*%
X162513400Y-76974200D02*
X166491700Y-72995900D01*
X154678700Y-76974200D02*
X162513400Y-76974200D01*
%TO.N,Net-(U1-E)*%
X145298900Y-71647600D02*
X144248900Y-72697600D01*
X155387600Y-71647600D02*
X145298900Y-71647600D01*
X157905500Y-74165500D02*
X155387600Y-71647600D01*
X161903500Y-74165500D02*
X157905500Y-74165500D01*
X162681700Y-73387300D02*
X161903500Y-74165500D01*
X162681700Y-70319500D02*
X162681700Y-73387300D01*
X166491700Y-66509500D02*
X162681700Y-70319500D01*
X143248700Y-72697600D02*
X144248900Y-72697600D01*
%TO.N,Net-(U6--IN)*%
X145596800Y-69768900D02*
X144248900Y-68421000D01*
X155287000Y-69768900D02*
X145596800Y-69768900D01*
X143248700Y-68421000D02*
X144248900Y-68421000D01*
%TO.N,RightHeadphoneOut*%
X142567000Y-122849200D02*
X141566800Y-122849200D01*
X101781800Y-57070900D02*
X100487500Y-55776600D01*
X135257600Y-57070900D02*
X101781800Y-57070900D01*
X139503400Y-61316700D02*
X135257600Y-57070900D01*
X147190200Y-61316700D02*
X139503400Y-61316700D01*
X99500000Y-55776600D02*
X100487500Y-55776600D01*
X141566800Y-123704600D02*
X141566800Y-122849200D01*
X144988000Y-127125800D02*
X141566800Y-123704600D01*
X153997000Y-127125800D02*
X144988000Y-127125800D01*
%TO.N,LeftHeadphoneOut*%
X148525500Y-72697600D02*
X154678700Y-72697600D01*
X144248900Y-76974200D02*
X148525500Y-72697600D01*
X143248700Y-76974200D02*
X144248900Y-76974200D01*
X153625500Y-67367800D02*
X154678700Y-68421000D01*
X121044800Y-67367800D02*
X153625500Y-67367800D01*
X115916700Y-62239700D02*
X121044800Y-67367800D01*
X101496600Y-62239700D02*
X115916700Y-62239700D01*
%TO.N,LineInputRight*%
X135020100Y-101618600D02*
X127318300Y-101618600D01*
X139398300Y-97240400D02*
X135020100Y-101618600D01*
X147641200Y-136576900D02*
X129063600Y-136576900D01*
X151869100Y-132349000D02*
X147641200Y-136576900D01*
X154225600Y-132349000D02*
X151869100Y-132349000D01*
X157110500Y-129464100D02*
X154225600Y-132349000D01*
X157110500Y-129291500D02*
X157110500Y-129464100D01*
X128076800Y-125959700D02*
X128661900Y-126544800D01*
X91540300Y-125959700D02*
X128076800Y-125959700D01*
X90500000Y-127000000D02*
X91540300Y-125959700D01*
%TO.N,LineInputLeft*%
X110036200Y-133409800D02*
X129264100Y-133409800D01*
X107811200Y-135634800D02*
X110036200Y-133409800D01*
X91534800Y-135634800D02*
X107811200Y-135634800D01*
X90500000Y-134600000D02*
X91534800Y-135634800D01*
X157053700Y-82678000D02*
X157792200Y-83416500D01*
X145937300Y-82678000D02*
X157053700Y-82678000D01*
X143580700Y-85034600D02*
X145937300Y-82678000D01*
X143580700Y-88894200D02*
X143580700Y-85034600D01*
X141773000Y-90701900D02*
X143580700Y-88894200D01*
X129745300Y-90701900D02*
X141773000Y-90701900D01*
X130802400Y-54055700D02*
X129114500Y-55743600D01*
X139242100Y-54055700D02*
X130802400Y-54055700D01*
X128000000Y-55743600D02*
X129114500Y-55743600D01*
%TO.N,Net-(Q13-Pad1)*%
X149868100Y-86948000D02*
X146225100Y-83305000D01*
X149868100Y-89484400D02*
X149868100Y-86948000D01*
X152508700Y-92125000D02*
X149868100Y-89484400D01*
X160141700Y-92125000D02*
X152508700Y-92125000D01*
%TO.N,Net-(J2-Pad2)*%
X107565700Y-47881700D02*
X111184000Y-51500000D01*
X94337400Y-47881700D02*
X107565700Y-47881700D01*
X87955700Y-41500000D02*
X94337400Y-47881700D01*
X87000000Y-41500000D02*
X87955700Y-41500000D01*
%TO.N,Net-(F1-Pad1)*%
X54616300Y-54834600D02*
X55987600Y-56205900D01*
X54616300Y-51630000D02*
X54616300Y-54834600D01*
X67434800Y-38811500D02*
X54616300Y-51630000D01*
X110719800Y-38811500D02*
X67434800Y-38811500D01*
X113531300Y-36000000D02*
X110719800Y-38811500D01*
X116500000Y-36000000D02*
X113531300Y-36000000D01*
%TO.N,PowerSupply*%
X106201800Y-69500000D02*
X98500000Y-69500000D01*
X110580000Y-65121800D02*
X106201800Y-69500000D01*
X129452100Y-41688400D02*
X132222600Y-38917900D01*
X113329400Y-41688400D02*
X129452100Y-41688400D01*
X132222600Y-36000000D02*
X132222600Y-38917900D01*
%TO.N,Net-(D1-Pad2)*%
X107187300Y-88089000D02*
X108418700Y-86857600D01*
X96396400Y-88089000D02*
X107187300Y-88089000D01*
X95762000Y-87454600D02*
X96396400Y-88089000D01*
X82147300Y-87454600D02*
X95762000Y-87454600D01*
X81070200Y-88531700D02*
X82147300Y-87454600D01*
X64531700Y-88531700D02*
X81070200Y-88531700D01*
X59000000Y-83000000D02*
X64531700Y-88531700D01*
%TO.N,Net-(U6-OUTPUT)*%
X135701800Y-86391000D02*
X128000000Y-86391000D01*
X140080000Y-82012800D02*
X135701800Y-86391000D01*
X164246700Y-82251000D02*
X165412200Y-83416500D01*
X140318200Y-82251000D02*
X164246700Y-82251000D01*
X140080000Y-82012800D02*
X140318200Y-82251000D01*
%TO.N,Net-(U1-B)*%
X130876700Y-80250600D02*
X147341400Y-80250600D01*
X129114500Y-82012800D02*
X130876700Y-80250600D01*
X128000000Y-82012800D02*
X129114500Y-82012800D01*
X160991200Y-66089000D02*
X161411700Y-66509500D01*
X148827800Y-66089000D02*
X160991200Y-66089000D01*
%TO.N,Net-(U9-EMITTER)*%
X151804000Y-78376100D02*
X154678700Y-81250800D01*
X140821500Y-78376100D02*
X151804000Y-78376100D01*
X140080000Y-77634600D02*
X140821500Y-78376100D01*
%TO.N,Net-(CR6-Pad2)*%
X133492700Y-73256400D02*
X140080000Y-73256400D01*
X129114500Y-77634600D02*
X133492700Y-73256400D01*
X128000000Y-77634600D02*
X129114500Y-77634600D01*
%TO.N,Net-(U2-B)*%
X141572400Y-70370600D02*
X140080000Y-68878200D01*
X158786400Y-70370600D02*
X141572400Y-70370600D01*
X161411700Y-72995900D02*
X158786400Y-70370600D01*
%TO.N,Net-(CR4-Pad1)*%
X128000000Y-64500000D02*
X129114500Y-64500000D01*
X130282900Y-65668400D02*
X129114500Y-64500000D01*
X148397600Y-65668400D02*
X130282900Y-65668400D01*
X149921600Y-64144400D02*
X148397600Y-65668400D01*
X154678700Y-64144400D02*
X149921600Y-64144400D01*
%TO.N,Net-(CR3-Pad1)*%
X128000000Y-60121800D02*
X129114500Y-60121800D01*
X133492700Y-64500000D02*
X129114500Y-60121800D01*
X140080000Y-64500000D02*
X133492700Y-64500000D01*
%TO.N,Net-(U15-ADJ)*%
X95939100Y-96950400D02*
X100874900Y-96950400D01*
X91461900Y-92473200D02*
X95939100Y-96950400D01*
X82253800Y-101681300D02*
X91461900Y-92473200D01*
X79596100Y-101681300D02*
X82253800Y-101681300D01*
%TO.N,Net-(U5-ADJ)*%
X83587900Y-88806200D02*
X84537300Y-88806200D01*
X95822200Y-90967900D02*
X90312300Y-90967900D01*
X95988500Y-91134200D02*
X95822200Y-90967900D01*
X90312300Y-90967900D02*
X90147500Y-91132700D01*
X90312300Y-90967900D02*
X90147500Y-91132700D01*
X84537300Y-88806200D02*
X84537300Y-91132700D01*
X90147500Y-91132700D02*
X84537300Y-91132700D01*
X81099500Y-91132700D02*
X77596100Y-94636100D01*
X84537300Y-91132700D02*
X81099500Y-91132700D01*
X96988700Y-91134200D02*
X95988500Y-91134200D01*
%TO.N,Net-(U15-IN)*%
X80402600Y-86784400D02*
X79596100Y-87590900D01*
X86140900Y-86784400D02*
X80402600Y-86784400D01*
X91957200Y-80968100D02*
X86140900Y-86784400D01*
X98267300Y-80968100D02*
X104018300Y-86719100D01*
X91957200Y-80968100D02*
X98267300Y-80968100D01*
X104786500Y-87487300D02*
X104018300Y-86719100D01*
X105374400Y-87487300D02*
X104786500Y-87487300D01*
%TO.N,Net-(U5-INPUT)*%
X90776100Y-65121800D02*
X86953400Y-68944500D01*
X98500000Y-65121800D02*
X90776100Y-65121800D01*
X83427100Y-74714700D02*
X86763700Y-74714700D01*
X77596100Y-80545700D02*
X83427100Y-74714700D01*
X86763700Y-74714700D02*
X86953400Y-74714700D01*
X86953400Y-74714700D02*
X86763700Y-74714700D01*
%TO.N,-15V*%
X129547300Y-120245900D02*
X128432800Y-119131400D01*
X139893500Y-120245900D02*
X129547300Y-120245900D01*
X141566800Y-118572600D02*
X139893500Y-120245900D01*
X127318300Y-119131400D02*
X128432800Y-119131400D01*
X156021100Y-131831500D02*
X157110500Y-131831500D01*
X152214500Y-135638100D02*
X156021100Y-131831500D01*
X151252400Y-135638100D02*
X152214500Y-135638100D01*
X156702800Y-85956500D02*
X157792200Y-85956500D01*
X152896200Y-89763100D02*
X156702800Y-85956500D01*
X151934100Y-89763100D02*
X152896200Y-89763100D01*
X115580000Y-73256400D02*
X128000000Y-73256400D01*
X110580000Y-78256400D02*
X115580000Y-73256400D01*
X142567000Y-118572600D02*
X142066900Y-118572600D01*
X142066900Y-118572600D02*
X141566800Y-118572600D01*
X162194500Y-68266700D02*
X157687000Y-68266700D01*
X163951700Y-66509500D02*
X162194500Y-68266700D01*
X128000000Y-73256400D02*
X129114500Y-73256400D01*
X131136100Y-71234800D02*
X129114500Y-73256400D01*
X142911400Y-71234800D02*
X131136100Y-71234800D01*
X158554700Y-71234800D02*
X142911400Y-71234800D01*
X158867500Y-71547600D02*
X158554700Y-71234800D01*
X101754500Y-92750000D02*
X105954900Y-96950400D01*
X94535300Y-92750000D02*
X101754500Y-92750000D01*
X93269700Y-91484400D02*
X94535300Y-92750000D01*
X90564000Y-91484400D02*
X93269700Y-91484400D01*
X89575200Y-92473200D02*
X90564000Y-91484400D01*
X83587900Y-92473200D02*
X89575200Y-92473200D01*
X143469000Y-117170500D02*
X142066900Y-118572600D01*
X161569600Y-117170500D02*
X143469000Y-117170500D01*
X163270000Y-118870900D02*
X161569600Y-117170500D01*
X157687000Y-68266700D02*
X157917800Y-68266700D01*
X157917800Y-68266700D02*
X157687000Y-68266700D01*
%TO.N,GNDREF*%
X144567400Y-102466400D02*
X143567200Y-101466200D01*
X156221700Y-102466400D02*
X144567400Y-102466400D01*
X159374400Y-105619100D02*
X156221700Y-102466400D01*
X142567000Y-101466200D02*
X143567200Y-101466200D01*
X159932400Y-59867800D02*
X160056100Y-59744100D01*
X154678700Y-59867800D02*
X159932400Y-59867800D01*
X128487800Y-137539000D02*
X127525700Y-136576900D01*
X151851500Y-137539000D02*
X128487800Y-137539000D01*
X153752400Y-135638100D02*
X151851500Y-137539000D01*
X126563600Y-136576900D02*
X127525700Y-136576900D01*
X108851000Y-90701900D02*
X108418700Y-91134200D01*
X127245300Y-90701900D02*
X108851000Y-90701900D01*
X86531000Y-80545700D02*
X86953400Y-80968100D01*
X79596100Y-80545700D02*
X86531000Y-80545700D01*
X89665100Y-78256400D02*
X98500000Y-78256400D01*
X86953400Y-80968100D02*
X89665100Y-78256400D01*
X106201800Y-78256400D02*
X98500000Y-78256400D01*
X110580000Y-73878200D02*
X106201800Y-78256400D01*
X89976900Y-136576900D02*
X126563600Y-136576900D01*
X88000000Y-134600000D02*
X89976900Y-136576900D01*
X130246500Y-88662800D02*
X128207400Y-90701900D01*
X142911400Y-88662800D02*
X130246500Y-88662800D01*
X127245300Y-90701900D02*
X128207400Y-90701900D01*
X83104800Y-69964000D02*
X79596100Y-66455300D01*
X90937700Y-69964000D02*
X83104800Y-69964000D01*
X91957200Y-68944500D02*
X90937700Y-69964000D01*
%TO.N,+15V*%
X161358500Y-114296000D02*
X153997000Y-114296000D01*
X163270000Y-112384500D02*
X161358500Y-114296000D01*
X147582100Y-107881100D02*
X153997000Y-114296000D01*
X141282600Y-107881100D02*
X147582100Y-107881100D01*
X139398300Y-105996800D02*
X141282600Y-107881100D01*
X166504400Y-81968700D02*
X165412200Y-80876500D01*
X166504400Y-83858400D02*
X166504400Y-81968700D01*
X165676300Y-84686500D02*
X166504400Y-83858400D01*
X155259500Y-84686500D02*
X165676300Y-84686500D01*
X154434100Y-85511900D02*
X155259500Y-84686500D01*
X156926000Y-96125500D02*
X159374400Y-98573900D01*
X129547700Y-96125500D02*
X156926000Y-96125500D01*
X128432800Y-97240400D02*
X129547700Y-96125500D01*
X127318300Y-97240400D02*
X128432800Y-97240400D01*
X142612000Y-57589800D02*
X140080000Y-60121800D01*
X142612000Y-56856600D02*
X142612000Y-57589800D01*
X85019000Y-73878200D02*
X98500000Y-73878200D01*
X77596100Y-66455300D02*
X85019000Y-73878200D01*
X153413300Y-56856600D02*
X154678700Y-55591200D01*
X142612000Y-56856600D02*
X153413300Y-56856600D01*
X157571000Y-52698900D02*
X160056100Y-52698900D01*
X154678700Y-55591200D02*
X157571000Y-52698900D01*
X90512000Y-87856300D02*
X91461900Y-88806200D01*
X82483100Y-87856300D02*
X90512000Y-87856300D01*
X81406000Y-88933400D02*
X82483100Y-87856300D01*
X62393400Y-88933400D02*
X81406000Y-88933400D01*
X56460000Y-83000000D02*
X62393400Y-88933400D01*
X137402700Y-51365400D02*
X128000000Y-51365400D01*
X141863100Y-55825800D02*
X137402700Y-51365400D01*
X141863100Y-56107700D02*
X141863100Y-55825800D01*
X142612000Y-56856600D02*
X141863100Y-56107700D01*
X99603300Y-88806200D02*
X91461900Y-88806200D01*
X108661000Y-97863800D02*
X99603300Y-88806200D01*
X109284400Y-97240400D02*
X108661000Y-97863800D01*
X127318300Y-97240400D02*
X109284400Y-97240400D01*
X108661000Y-97863800D02*
X103351400Y-103173400D01*
%TO.N,0*%
X143248700Y-64144400D02*
X142248500Y-64144400D01*
X144431300Y-61961600D02*
X142248500Y-64144400D01*
X149795000Y-61961600D02*
X144431300Y-61961600D01*
X154499800Y-57256800D02*
X149795000Y-61961600D01*
X157498200Y-57256800D02*
X154499800Y-57256800D01*
X162056100Y-52698900D02*
X157498200Y-57256800D01*
X141680500Y-64144400D02*
X142248500Y-64144400D01*
X135008700Y-57472600D02*
X141680500Y-64144400D01*
X75274500Y-57472600D02*
X135008700Y-57472600D01*
X74872800Y-57070900D02*
X75274500Y-57472600D01*
X150179100Y-99541600D02*
X148219500Y-97582000D01*
X160406700Y-99541600D02*
X150179100Y-99541600D01*
X161374400Y-98573900D02*
X160406700Y-99541600D01*
%TD*%
M02*
