%TF.GenerationSoftware,KiCad,Pcbnew,9.0.7*%
%TF.CreationDate,2026-03-24T23:58:10-07:00*%
%TF.ProjectId,PCBTest,50434254-6573-4742-9e6b-696361645f70,rev?*%
%TF.SameCoordinates,Original*%
%TF.FileFunction,Profile,NP*%
%FSLAX46Y46*%
G04 Gerber Fmt 4.6, Leading zero omitted, Abs format (unit mm)*
G04 Created by KiCad (PCBNEW 9.0.7) date 2026-03-24 23:58:10*
%MOMM*%
%LPD*%
G01*
G04 APERTURE LIST*
%TA.AperFunction,Profile*%
%ADD10C,0.050000*%
%TD*%
%ADD11C,0.150000*%
G04 APERTURE END LIST*
D10*
X52786300Y-28577100D02*
X179786300Y-28577100D01*
X179786300Y-142877100D01*
X52786300Y-142877100D01*
X52786300Y-28577100D01*
D11*
X171212256Y-100710839D02*
X171259875Y-100567982D01*
X171259875Y-100567982D02*
X171259875Y-100329887D01*
X171259875Y-100329887D02*
X171212256Y-100234649D01*
X171212256Y-100234649D02*
X171164636Y-100187030D01*
X171164636Y-100187030D02*
X171069398Y-100139411D01*
X171069398Y-100139411D02*
X170974160Y-100139411D01*
X170974160Y-100139411D02*
X170878922Y-100187030D01*
X170878922Y-100187030D02*
X170831303Y-100234649D01*
X170831303Y-100234649D02*
X170783684Y-100329887D01*
X170783684Y-100329887D02*
X170736065Y-100520363D01*
X170736065Y-100520363D02*
X170688446Y-100615601D01*
X170688446Y-100615601D02*
X170640827Y-100663220D01*
X170640827Y-100663220D02*
X170545589Y-100710839D01*
X170545589Y-100710839D02*
X170450351Y-100710839D01*
X170450351Y-100710839D02*
X170355113Y-100663220D01*
X170355113Y-100663220D02*
X170307494Y-100615601D01*
X170307494Y-100615601D02*
X170259875Y-100520363D01*
X170259875Y-100520363D02*
X170259875Y-100282268D01*
X170259875Y-100282268D02*
X170307494Y-100139411D01*
X170736065Y-99377506D02*
X170736065Y-99710839D01*
X171259875Y-99710839D02*
X170259875Y-99710839D01*
X170259875Y-99710839D02*
X170259875Y-99234649D01*
X171212256Y-98901315D02*
X171259875Y-98758458D01*
X171259875Y-98758458D02*
X171259875Y-98520363D01*
X171259875Y-98520363D02*
X171212256Y-98425125D01*
X171212256Y-98425125D02*
X171164636Y-98377506D01*
X171164636Y-98377506D02*
X171069398Y-98329887D01*
X171069398Y-98329887D02*
X170974160Y-98329887D01*
X170974160Y-98329887D02*
X170878922Y-98377506D01*
X170878922Y-98377506D02*
X170831303Y-98425125D01*
X170831303Y-98425125D02*
X170783684Y-98520363D01*
X170783684Y-98520363D02*
X170736065Y-98710839D01*
X170736065Y-98710839D02*
X170688446Y-98806077D01*
X170688446Y-98806077D02*
X170640827Y-98853696D01*
X170640827Y-98853696D02*
X170545589Y-98901315D01*
X170545589Y-98901315D02*
X170450351Y-98901315D01*
X170450351Y-98901315D02*
X170355113Y-98853696D01*
X170355113Y-98853696D02*
X170307494Y-98806077D01*
X170307494Y-98806077D02*
X170259875Y-98710839D01*
X170259875Y-98710839D02*
X170259875Y-98472744D01*
X170259875Y-98472744D02*
X170307494Y-98329887D01*
X170259875Y-97901315D02*
X171069398Y-97901315D01*
X171069398Y-97901315D02*
X171164636Y-97853696D01*
X171164636Y-97853696D02*
X171212256Y-97806077D01*
X171212256Y-97806077D02*
X171259875Y-97710839D01*
X171259875Y-97710839D02*
X171259875Y-97520363D01*
X171259875Y-97520363D02*
X171212256Y-97425125D01*
X171212256Y-97425125D02*
X171164636Y-97377506D01*
X171164636Y-97377506D02*
X171069398Y-97329887D01*
X171069398Y-97329887D02*
X170259875Y-97329887D01*
X170878922Y-96091791D02*
X170878922Y-95329887D01*
X170736065Y-94091791D02*
X170736065Y-93758458D01*
X171259875Y-93615601D02*
X171259875Y-94091791D01*
X171259875Y-94091791D02*
X170259875Y-94091791D01*
X170259875Y-94091791D02*
X170259875Y-93615601D01*
X171259875Y-93187029D02*
X170259875Y-93187029D01*
X170259875Y-93187029D02*
X171259875Y-92615601D01*
X171259875Y-92615601D02*
X170259875Y-92615601D01*
X170307494Y-91615601D02*
X170259875Y-91710839D01*
X170259875Y-91710839D02*
X170259875Y-91853696D01*
X170259875Y-91853696D02*
X170307494Y-91996553D01*
X170307494Y-91996553D02*
X170402732Y-92091791D01*
X170402732Y-92091791D02*
X170497970Y-92139410D01*
X170497970Y-92139410D02*
X170688446Y-92187029D01*
X170688446Y-92187029D02*
X170831303Y-92187029D01*
X170831303Y-92187029D02*
X171021779Y-92139410D01*
X171021779Y-92139410D02*
X171117017Y-92091791D01*
X171117017Y-92091791D02*
X171212256Y-91996553D01*
X171212256Y-91996553D02*
X171259875Y-91853696D01*
X171259875Y-91853696D02*
X171259875Y-91758458D01*
X171259875Y-91758458D02*
X171212256Y-91615601D01*
X171212256Y-91615601D02*
X171164636Y-91567982D01*
X171164636Y-91567982D02*
X170831303Y-91567982D01*
X170831303Y-91567982D02*
X170831303Y-91758458D01*
X171259875Y-90567982D02*
X170783684Y-90901315D01*
X171259875Y-91139410D02*
X170259875Y-91139410D01*
X170259875Y-91139410D02*
X170259875Y-90758458D01*
X170259875Y-90758458D02*
X170307494Y-90663220D01*
X170307494Y-90663220D02*
X170355113Y-90615601D01*
X170355113Y-90615601D02*
X170450351Y-90567982D01*
X170450351Y-90567982D02*
X170593208Y-90567982D01*
X170593208Y-90567982D02*
X170688446Y-90615601D01*
X170688446Y-90615601D02*
X170736065Y-90663220D01*
X170736065Y-90663220D02*
X170783684Y-90758458D01*
X170783684Y-90758458D02*
X170783684Y-91139410D01*
X170259875Y-90234648D02*
X170259875Y-89615601D01*
X170259875Y-89615601D02*
X170640827Y-89948934D01*
X170640827Y-89948934D02*
X170640827Y-89806077D01*
X170640827Y-89806077D02*
X170688446Y-89710839D01*
X170688446Y-89710839D02*
X170736065Y-89663220D01*
X170736065Y-89663220D02*
X170831303Y-89615601D01*
X170831303Y-89615601D02*
X171069398Y-89615601D01*
X171069398Y-89615601D02*
X171164636Y-89663220D01*
X171164636Y-89663220D02*
X171212256Y-89710839D01*
X171212256Y-89710839D02*
X171259875Y-89806077D01*
X171259875Y-89806077D02*
X171259875Y-90091791D01*
X171259875Y-90091791D02*
X171212256Y-90187029D01*
X171212256Y-90187029D02*
X171164636Y-90234648D01*
X170259875Y-88996553D02*
X170259875Y-88901315D01*
X170259875Y-88901315D02*
X170307494Y-88806077D01*
X170307494Y-88806077D02*
X170355113Y-88758458D01*
X170355113Y-88758458D02*
X170450351Y-88710839D01*
X170450351Y-88710839D02*
X170640827Y-88663220D01*
X170640827Y-88663220D02*
X170878922Y-88663220D01*
X170878922Y-88663220D02*
X171069398Y-88710839D01*
X171069398Y-88710839D02*
X171164636Y-88758458D01*
X171164636Y-88758458D02*
X171212256Y-88806077D01*
X171212256Y-88806077D02*
X171259875Y-88901315D01*
X171259875Y-88901315D02*
X171259875Y-88996553D01*
X171259875Y-88996553D02*
X171212256Y-89091791D01*
X171212256Y-89091791D02*
X171164636Y-89139410D01*
X171164636Y-89139410D02*
X171069398Y-89187029D01*
X171069398Y-89187029D02*
X170878922Y-89234648D01*
X170878922Y-89234648D02*
X170640827Y-89234648D01*
X170640827Y-89234648D02*
X170450351Y-89187029D01*
X170450351Y-89187029D02*
X170355113Y-89139410D01*
X170355113Y-89139410D02*
X170307494Y-89091791D01*
X170307494Y-89091791D02*
X170259875Y-88996553D01*
X171259875Y-87710839D02*
X171259875Y-88282267D01*
X171259875Y-87996553D02*
X170259875Y-87996553D01*
X170259875Y-87996553D02*
X170402732Y-88091791D01*
X170402732Y-88091791D02*
X170497970Y-88187029D01*
X170497970Y-88187029D02*
X170545589Y-88282267D01*
X170878922Y-86520362D02*
X170878922Y-85758458D01*
X171212256Y-84567981D02*
X171259875Y-84425124D01*
X171259875Y-84425124D02*
X171259875Y-84187029D01*
X171259875Y-84187029D02*
X171212256Y-84091791D01*
X171212256Y-84091791D02*
X171164636Y-84044172D01*
X171164636Y-84044172D02*
X171069398Y-83996553D01*
X171069398Y-83996553D02*
X170974160Y-83996553D01*
X170974160Y-83996553D02*
X170878922Y-84044172D01*
X170878922Y-84044172D02*
X170831303Y-84091791D01*
X170831303Y-84091791D02*
X170783684Y-84187029D01*
X170783684Y-84187029D02*
X170736065Y-84377505D01*
X170736065Y-84377505D02*
X170688446Y-84472743D01*
X170688446Y-84472743D02*
X170640827Y-84520362D01*
X170640827Y-84520362D02*
X170545589Y-84567981D01*
X170545589Y-84567981D02*
X170450351Y-84567981D01*
X170450351Y-84567981D02*
X170355113Y-84520362D01*
X170355113Y-84520362D02*
X170307494Y-84472743D01*
X170307494Y-84472743D02*
X170259875Y-84377505D01*
X170259875Y-84377505D02*
X170259875Y-84139410D01*
X170259875Y-84139410D02*
X170307494Y-83996553D01*
X170593208Y-83567981D02*
X171593208Y-83567981D01*
X170640827Y-83567981D02*
X170593208Y-83472743D01*
X170593208Y-83472743D02*
X170593208Y-83282267D01*
X170593208Y-83282267D02*
X170640827Y-83187029D01*
X170640827Y-83187029D02*
X170688446Y-83139410D01*
X170688446Y-83139410D02*
X170783684Y-83091791D01*
X170783684Y-83091791D02*
X171069398Y-83091791D01*
X171069398Y-83091791D02*
X171164636Y-83139410D01*
X171164636Y-83139410D02*
X171212256Y-83187029D01*
X171212256Y-83187029D02*
X171259875Y-83282267D01*
X171259875Y-83282267D02*
X171259875Y-83472743D01*
X171259875Y-83472743D02*
X171212256Y-83567981D01*
X171259875Y-82663219D02*
X170593208Y-82663219D01*
X170783684Y-82663219D02*
X170688446Y-82615600D01*
X170688446Y-82615600D02*
X170640827Y-82567981D01*
X170640827Y-82567981D02*
X170593208Y-82472743D01*
X170593208Y-82472743D02*
X170593208Y-82377505D01*
X171259875Y-82044171D02*
X170593208Y-82044171D01*
X170259875Y-82044171D02*
X170307494Y-82091790D01*
X170307494Y-82091790D02*
X170355113Y-82044171D01*
X170355113Y-82044171D02*
X170307494Y-81996552D01*
X170307494Y-81996552D02*
X170259875Y-82044171D01*
X170259875Y-82044171D02*
X170355113Y-82044171D01*
X170593208Y-81567981D02*
X171259875Y-81567981D01*
X170688446Y-81567981D02*
X170640827Y-81520362D01*
X170640827Y-81520362D02*
X170593208Y-81425124D01*
X170593208Y-81425124D02*
X170593208Y-81282267D01*
X170593208Y-81282267D02*
X170640827Y-81187029D01*
X170640827Y-81187029D02*
X170736065Y-81139410D01*
X170736065Y-81139410D02*
X171259875Y-81139410D01*
X170593208Y-80234648D02*
X171402732Y-80234648D01*
X171402732Y-80234648D02*
X171497970Y-80282267D01*
X171497970Y-80282267D02*
X171545589Y-80329886D01*
X171545589Y-80329886D02*
X171593208Y-80425124D01*
X171593208Y-80425124D02*
X171593208Y-80567981D01*
X171593208Y-80567981D02*
X171545589Y-80663219D01*
X171212256Y-80234648D02*
X171259875Y-80329886D01*
X171259875Y-80329886D02*
X171259875Y-80520362D01*
X171259875Y-80520362D02*
X171212256Y-80615600D01*
X171212256Y-80615600D02*
X171164636Y-80663219D01*
X171164636Y-80663219D02*
X171069398Y-80710838D01*
X171069398Y-80710838D02*
X170783684Y-80710838D01*
X170783684Y-80710838D02*
X170688446Y-80663219D01*
X170688446Y-80663219D02*
X170640827Y-80615600D01*
X170640827Y-80615600D02*
X170593208Y-80520362D01*
X170593208Y-80520362D02*
X170593208Y-80329886D01*
X170593208Y-80329886D02*
X170640827Y-80234648D01*
X170355113Y-79806076D02*
X170307494Y-79758457D01*
X170307494Y-79758457D02*
X170259875Y-79663219D01*
X170259875Y-79663219D02*
X170259875Y-79425124D01*
X170259875Y-79425124D02*
X170307494Y-79329886D01*
X170307494Y-79329886D02*
X170355113Y-79282267D01*
X170355113Y-79282267D02*
X170450351Y-79234648D01*
X170450351Y-79234648D02*
X170545589Y-79234648D01*
X170545589Y-79234648D02*
X170688446Y-79282267D01*
X170688446Y-79282267D02*
X171259875Y-79853695D01*
X171259875Y-79853695D02*
X171259875Y-79234648D01*
X170259875Y-78377505D02*
X170259875Y-78567981D01*
X170259875Y-78567981D02*
X170307494Y-78663219D01*
X170307494Y-78663219D02*
X170355113Y-78710838D01*
X170355113Y-78710838D02*
X170497970Y-78806076D01*
X170497970Y-78806076D02*
X170688446Y-78853695D01*
X170688446Y-78853695D02*
X171069398Y-78853695D01*
X171069398Y-78853695D02*
X171164636Y-78806076D01*
X171164636Y-78806076D02*
X171212256Y-78758457D01*
X171212256Y-78758457D02*
X171259875Y-78663219D01*
X171259875Y-78663219D02*
X171259875Y-78472743D01*
X171259875Y-78472743D02*
X171212256Y-78377505D01*
X171212256Y-78377505D02*
X171164636Y-78329886D01*
X171164636Y-78329886D02*
X171069398Y-78282267D01*
X171069398Y-78282267D02*
X170831303Y-78282267D01*
X170831303Y-78282267D02*
X170736065Y-78329886D01*
X170736065Y-78329886D02*
X170688446Y-78377505D01*
X170688446Y-78377505D02*
X170640827Y-78472743D01*
X170640827Y-78472743D02*
X170640827Y-78663219D01*
X170640827Y-78663219D02*
X170688446Y-78758457D01*
X170688446Y-78758457D02*
X170736065Y-78806076D01*
X170736065Y-78806076D02*
X170831303Y-78853695D01*
X172346009Y-100329887D02*
X172346009Y-100663220D01*
X172869819Y-100663220D02*
X171869819Y-100663220D01*
X171869819Y-100663220D02*
X171869819Y-100187030D01*
X172869819Y-99806077D02*
X172203152Y-99806077D01*
X171869819Y-99806077D02*
X171917438Y-99853696D01*
X171917438Y-99853696D02*
X171965057Y-99806077D01*
X171965057Y-99806077D02*
X171917438Y-99758458D01*
X171917438Y-99758458D02*
X171869819Y-99806077D01*
X171869819Y-99806077D02*
X171965057Y-99806077D01*
X172203152Y-99329887D02*
X172869819Y-99329887D01*
X172298390Y-99329887D02*
X172250771Y-99282268D01*
X172250771Y-99282268D02*
X172203152Y-99187030D01*
X172203152Y-99187030D02*
X172203152Y-99044173D01*
X172203152Y-99044173D02*
X172250771Y-98948935D01*
X172250771Y-98948935D02*
X172346009Y-98901316D01*
X172346009Y-98901316D02*
X172869819Y-98901316D01*
X172869819Y-97996554D02*
X172346009Y-97996554D01*
X172346009Y-97996554D02*
X172250771Y-98044173D01*
X172250771Y-98044173D02*
X172203152Y-98139411D01*
X172203152Y-98139411D02*
X172203152Y-98329887D01*
X172203152Y-98329887D02*
X172250771Y-98425125D01*
X172822200Y-97996554D02*
X172869819Y-98091792D01*
X172869819Y-98091792D02*
X172869819Y-98329887D01*
X172869819Y-98329887D02*
X172822200Y-98425125D01*
X172822200Y-98425125D02*
X172726961Y-98472744D01*
X172726961Y-98472744D02*
X172631723Y-98472744D01*
X172631723Y-98472744D02*
X172536485Y-98425125D01*
X172536485Y-98425125D02*
X172488866Y-98329887D01*
X172488866Y-98329887D02*
X172488866Y-98091792D01*
X172488866Y-98091792D02*
X172441247Y-97996554D01*
X172869819Y-97377506D02*
X172822200Y-97472744D01*
X172822200Y-97472744D02*
X172726961Y-97520363D01*
X172726961Y-97520363D02*
X171869819Y-97520363D01*
X172869819Y-96234648D02*
X171869819Y-96234648D01*
X171869819Y-96234648D02*
X171869819Y-95853696D01*
X171869819Y-95853696D02*
X171917438Y-95758458D01*
X171917438Y-95758458D02*
X171965057Y-95710839D01*
X171965057Y-95710839D02*
X172060295Y-95663220D01*
X172060295Y-95663220D02*
X172203152Y-95663220D01*
X172203152Y-95663220D02*
X172298390Y-95710839D01*
X172298390Y-95710839D02*
X172346009Y-95758458D01*
X172346009Y-95758458D02*
X172393628Y-95853696D01*
X172393628Y-95853696D02*
X172393628Y-96234648D01*
X172869819Y-95234648D02*
X172203152Y-95234648D01*
X172393628Y-95234648D02*
X172298390Y-95187029D01*
X172298390Y-95187029D02*
X172250771Y-95139410D01*
X172250771Y-95139410D02*
X172203152Y-95044172D01*
X172203152Y-95044172D02*
X172203152Y-94948934D01*
X172869819Y-94472743D02*
X172822200Y-94567981D01*
X172822200Y-94567981D02*
X172774580Y-94615600D01*
X172774580Y-94615600D02*
X172679342Y-94663219D01*
X172679342Y-94663219D02*
X172393628Y-94663219D01*
X172393628Y-94663219D02*
X172298390Y-94615600D01*
X172298390Y-94615600D02*
X172250771Y-94567981D01*
X172250771Y-94567981D02*
X172203152Y-94472743D01*
X172203152Y-94472743D02*
X172203152Y-94329886D01*
X172203152Y-94329886D02*
X172250771Y-94234648D01*
X172250771Y-94234648D02*
X172298390Y-94187029D01*
X172298390Y-94187029D02*
X172393628Y-94139410D01*
X172393628Y-94139410D02*
X172679342Y-94139410D01*
X172679342Y-94139410D02*
X172774580Y-94187029D01*
X172774580Y-94187029D02*
X172822200Y-94234648D01*
X172822200Y-94234648D02*
X172869819Y-94329886D01*
X172869819Y-94329886D02*
X172869819Y-94472743D01*
X172203152Y-93710838D02*
X173060295Y-93710838D01*
X173060295Y-93710838D02*
X173155533Y-93758457D01*
X173155533Y-93758457D02*
X173203152Y-93853695D01*
X173203152Y-93853695D02*
X173203152Y-93901314D01*
X171869819Y-93710838D02*
X171917438Y-93758457D01*
X171917438Y-93758457D02*
X171965057Y-93710838D01*
X171965057Y-93710838D02*
X171917438Y-93663219D01*
X171917438Y-93663219D02*
X171869819Y-93710838D01*
X171869819Y-93710838D02*
X171965057Y-93710838D01*
X172822200Y-92853696D02*
X172869819Y-92948934D01*
X172869819Y-92948934D02*
X172869819Y-93139410D01*
X172869819Y-93139410D02*
X172822200Y-93234648D01*
X172822200Y-93234648D02*
X172726961Y-93282267D01*
X172726961Y-93282267D02*
X172346009Y-93282267D01*
X172346009Y-93282267D02*
X172250771Y-93234648D01*
X172250771Y-93234648D02*
X172203152Y-93139410D01*
X172203152Y-93139410D02*
X172203152Y-92948934D01*
X172203152Y-92948934D02*
X172250771Y-92853696D01*
X172250771Y-92853696D02*
X172346009Y-92806077D01*
X172346009Y-92806077D02*
X172441247Y-92806077D01*
X172441247Y-92806077D02*
X172536485Y-93282267D01*
X172822200Y-91948934D02*
X172869819Y-92044172D01*
X172869819Y-92044172D02*
X172869819Y-92234648D01*
X172869819Y-92234648D02*
X172822200Y-92329886D01*
X172822200Y-92329886D02*
X172774580Y-92377505D01*
X172774580Y-92377505D02*
X172679342Y-92425124D01*
X172679342Y-92425124D02*
X172393628Y-92425124D01*
X172393628Y-92425124D02*
X172298390Y-92377505D01*
X172298390Y-92377505D02*
X172250771Y-92329886D01*
X172250771Y-92329886D02*
X172203152Y-92234648D01*
X172203152Y-92234648D02*
X172203152Y-92044172D01*
X172203152Y-92044172D02*
X172250771Y-91948934D01*
X172203152Y-91663219D02*
X172203152Y-91282267D01*
X171869819Y-91520362D02*
X172726961Y-91520362D01*
X172726961Y-91520362D02*
X172822200Y-91472743D01*
X172822200Y-91472743D02*
X172869819Y-91377505D01*
X172869819Y-91377505D02*
X172869819Y-91282267D01*
X172488866Y-90187028D02*
X172488866Y-89425124D01*
X171869819Y-88329885D02*
X171869819Y-87758457D01*
X172869819Y-88044171D02*
X171869819Y-88044171D01*
X172869819Y-86996552D02*
X172346009Y-86996552D01*
X172346009Y-86996552D02*
X172250771Y-87044171D01*
X172250771Y-87044171D02*
X172203152Y-87139409D01*
X172203152Y-87139409D02*
X172203152Y-87329885D01*
X172203152Y-87329885D02*
X172250771Y-87425123D01*
X172822200Y-86996552D02*
X172869819Y-87091790D01*
X172869819Y-87091790D02*
X172869819Y-87329885D01*
X172869819Y-87329885D02*
X172822200Y-87425123D01*
X172822200Y-87425123D02*
X172726961Y-87472742D01*
X172726961Y-87472742D02*
X172631723Y-87472742D01*
X172631723Y-87472742D02*
X172536485Y-87425123D01*
X172536485Y-87425123D02*
X172488866Y-87329885D01*
X172488866Y-87329885D02*
X172488866Y-87091790D01*
X172488866Y-87091790D02*
X172441247Y-86996552D01*
X172869819Y-86520361D02*
X172203152Y-86520361D01*
X172393628Y-86520361D02*
X172298390Y-86472742D01*
X172298390Y-86472742D02*
X172250771Y-86425123D01*
X172250771Y-86425123D02*
X172203152Y-86329885D01*
X172203152Y-86329885D02*
X172203152Y-86234647D01*
X172203152Y-85472742D02*
X172869819Y-85472742D01*
X172203152Y-85901313D02*
X172726961Y-85901313D01*
X172726961Y-85901313D02*
X172822200Y-85853694D01*
X172822200Y-85853694D02*
X172869819Y-85758456D01*
X172869819Y-85758456D02*
X172869819Y-85615599D01*
X172869819Y-85615599D02*
X172822200Y-85520361D01*
X172822200Y-85520361D02*
X172774580Y-85472742D01*
X172203152Y-84996551D02*
X172869819Y-84996551D01*
X172298390Y-84996551D02*
X172250771Y-84948932D01*
X172250771Y-84948932D02*
X172203152Y-84853694D01*
X172203152Y-84853694D02*
X172203152Y-84710837D01*
X172203152Y-84710837D02*
X172250771Y-84615599D01*
X172250771Y-84615599D02*
X172346009Y-84567980D01*
X172346009Y-84567980D02*
X172869819Y-84567980D01*
X172584104Y-83377503D02*
X172584104Y-82901313D01*
X172869819Y-83472741D02*
X171869819Y-83139408D01*
X171869819Y-83139408D02*
X172869819Y-82806075D01*
X172869819Y-82472741D02*
X172203152Y-82472741D01*
X172298390Y-82472741D02*
X172250771Y-82425122D01*
X172250771Y-82425122D02*
X172203152Y-82329884D01*
X172203152Y-82329884D02*
X172203152Y-82187027D01*
X172203152Y-82187027D02*
X172250771Y-82091789D01*
X172250771Y-82091789D02*
X172346009Y-82044170D01*
X172346009Y-82044170D02*
X172869819Y-82044170D01*
X172346009Y-82044170D02*
X172250771Y-81996551D01*
X172250771Y-81996551D02*
X172203152Y-81901313D01*
X172203152Y-81901313D02*
X172203152Y-81758456D01*
X172203152Y-81758456D02*
X172250771Y-81663217D01*
X172250771Y-81663217D02*
X172346009Y-81615598D01*
X172346009Y-81615598D02*
X172869819Y-81615598D01*
X172869819Y-81139408D02*
X171869819Y-81139408D01*
X172250771Y-81139408D02*
X172203152Y-81044170D01*
X172203152Y-81044170D02*
X172203152Y-80853694D01*
X172203152Y-80853694D02*
X172250771Y-80758456D01*
X172250771Y-80758456D02*
X172298390Y-80710837D01*
X172298390Y-80710837D02*
X172393628Y-80663218D01*
X172393628Y-80663218D02*
X172679342Y-80663218D01*
X172679342Y-80663218D02*
X172774580Y-80710837D01*
X172774580Y-80710837D02*
X172822200Y-80758456D01*
X172822200Y-80758456D02*
X172869819Y-80853694D01*
X172869819Y-80853694D02*
X172869819Y-81044170D01*
X172869819Y-81044170D02*
X172822200Y-81139408D01*
X172869819Y-79806075D02*
X172346009Y-79806075D01*
X172346009Y-79806075D02*
X172250771Y-79853694D01*
X172250771Y-79853694D02*
X172203152Y-79948932D01*
X172203152Y-79948932D02*
X172203152Y-80139408D01*
X172203152Y-80139408D02*
X172250771Y-80234646D01*
X172822200Y-79806075D02*
X172869819Y-79901313D01*
X172869819Y-79901313D02*
X172869819Y-80139408D01*
X172869819Y-80139408D02*
X172822200Y-80234646D01*
X172822200Y-80234646D02*
X172726961Y-80282265D01*
X172726961Y-80282265D02*
X172631723Y-80282265D01*
X172631723Y-80282265D02*
X172536485Y-80234646D01*
X172536485Y-80234646D02*
X172488866Y-80139408D01*
X172488866Y-80139408D02*
X172488866Y-79901313D01*
X172488866Y-79901313D02*
X172441247Y-79806075D01*
X172203152Y-79472741D02*
X172203152Y-79091789D01*
X171869819Y-79329884D02*
X172726961Y-79329884D01*
X172726961Y-79329884D02*
X172822200Y-79282265D01*
X172822200Y-79282265D02*
X172869819Y-79187027D01*
X172869819Y-79187027D02*
X172869819Y-79091789D01*
X172869819Y-78758455D02*
X172203152Y-78758455D01*
X171869819Y-78758455D02*
X171917438Y-78806074D01*
X171917438Y-78806074D02*
X171965057Y-78758455D01*
X171965057Y-78758455D02*
X171917438Y-78710836D01*
X171917438Y-78710836D02*
X171869819Y-78758455D01*
X171869819Y-78758455D02*
X171965057Y-78758455D01*
M02*
