M48
; DRILL file {KiCad 9.0.7} date 2026-03-24T23:58:16-0700
; FORMAT={-:-/ absolute / metric / decimal}
; #@! TF.CreationDate,2026-03-24T23:58:16-07:00
; #@! TF.GenerationSoftware,Kicad,Pcbnew,9.0.7
; #@! TF.FileFunction,Plated,1,2,PTH
FMAT,2
METRIC
; #@! TA.AperFunction,Plated,PTH,ViaDrill
T1C0.300
; #@! TA.AperFunction,Plated,PTH,ComponentDrill
T2C0.762
; #@! TA.AperFunction,Plated,PTH,ComponentDrill
T3C0.787
; #@! TA.AperFunction,Plated,PTH,ComponentDrill
T4C0.800
; #@! TA.AperFunction,Plated,PTH,ComponentDrill
T5C0.813
; #@! TA.AperFunction,Plated,PTH,ComponentDrill
T6C0.850
; #@! TA.AperFunction,Plated,PTH,ComponentDrill
T7C0.864
; #@! TA.AperFunction,Plated,PTH,ComponentDrill
T8C0.889
; #@! TA.AperFunction,Plated,PTH,ComponentDrill
T9C1.000
; #@! TA.AperFunction,Plated,PTH,ComponentDrill
T10C1.016
; #@! TA.AperFunction,Plated,PTH,ComponentDrill
T11C1.118
; #@! TA.AperFunction,Plated,PTH,ComponentDrill
T12C1.143
; #@! TA.AperFunction,Plated,PTH,ComponentDrill
T13C1.372
; #@! TA.AperFunction,Plated,PTH,ComponentDrill
T14C1.499
%
G90
G05
T1
X74.873Y-57.071
X86.764Y-74.715
X101.497Y-62.24
X104.018Y-86.719
X105.374Y-87.487
X113.329Y-41.688
X128.662Y-126.545
X129.264Y-133.41
X139.242Y-54.056
X142.911Y-71.235
X142.911Y-88.663
X146.225Y-83.305
X147.19Y-61.317
X147.341Y-80.251
X147.86Y-121.043
X148.219Y-97.582
X148.672Y-121.113
X148.821Y-112.158
X148.828Y-66.089
X149.64Y-111.344
X151.916Y-122.173
X155.143Y-115.621
X155.287Y-69.769
X155.997Y-120.051
X157.687Y-68.267
X158.868Y-71.548
T2
X77.596Y-66.455
X77.596Y-73.501
X77.596Y-80.546
X77.596Y-87.591
X77.596Y-94.636
X77.596Y-101.681
X79.596Y-66.455
X79.596Y-73.501
X79.596Y-80.546
X79.596Y-87.591
X79.596Y-94.636
X79.596Y-101.681
X159.374Y-98.574
X159.374Y-105.619
X160.056Y-52.699
X160.056Y-59.744
X161.374Y-98.574
X161.374Y-105.619
X162.056Y-52.699
X162.056Y-59.744
T3
X83.588Y-88.806
X83.588Y-92.473
X91.462Y-88.806
X91.462Y-92.473
X159.46Y-138.0
X160.142Y-92.125
X160.73Y-136.73
X161.412Y-90.855
X162.0Y-138.0
X162.682Y-92.125
T5
X55.988Y-54.206
X55.988Y-56.206
X55.988Y-58.206
X126.564Y-136.577
X127.245Y-90.702
X129.064Y-136.577
X129.745Y-90.702
X151.252Y-131.387
X151.252Y-135.638
X151.934Y-85.512
X151.934Y-89.763
X153.752Y-131.387
X153.752Y-135.638
X154.434Y-85.512
X154.434Y-89.763
X157.111Y-124.212
X157.111Y-126.751
X157.111Y-129.291
X157.111Y-131.832
X157.792Y-78.337
X157.792Y-80.876
X157.792Y-83.416
X157.792Y-85.956
X164.731Y-124.212
X164.731Y-126.751
X164.731Y-129.291
X164.731Y-131.832
X165.412Y-78.337
X165.412Y-80.876
X165.412Y-83.416
X165.412Y-85.956
T6
X88.0Y-127.0
X88.0Y-134.6
X90.5Y-127.0
X90.5Y-134.6
X93.0Y-127.0
X93.0Y-134.6
T7
X86.953Y-68.944
X86.953Y-80.968
X91.957Y-68.944
X91.957Y-80.968
X99.5Y-51.5
X99.5Y-55.777
X111.184Y-51.5
X111.184Y-55.777
T8
X96.989Y-82.581
X96.989Y-86.858
X96.989Y-91.134
X108.419Y-82.581
X108.419Y-86.858
X108.419Y-91.134
X142.567Y-97.19
X142.567Y-101.466
X142.567Y-105.743
X142.567Y-110.019
X142.567Y-114.296
X142.567Y-118.573
X142.567Y-122.849
X142.567Y-127.126
X143.249Y-51.315
X143.249Y-55.591
X143.249Y-59.868
X143.249Y-64.144
X143.249Y-68.421
X143.249Y-72.698
X143.249Y-76.974
X143.249Y-81.251
X153.997Y-97.19
X153.997Y-101.466
X153.997Y-105.743
X153.997Y-110.019
X153.997Y-114.296
X153.997Y-118.573
X153.997Y-122.849
X153.997Y-127.126
X154.679Y-51.315
X154.679Y-55.591
X154.679Y-59.868
X154.679Y-64.144
X154.679Y-68.421
X154.679Y-72.698
X154.679Y-76.974
X154.679Y-81.251
T9
X56.46Y-83.0
X59.0Y-83.0
T10
X144.98Y-133.965
X145.662Y-88.09
X146.25Y-131.425
X146.932Y-85.55
X147.52Y-133.965
X148.202Y-88.09
T11
X98.5Y-65.122
X98.5Y-69.5
X98.5Y-73.878
X98.5Y-78.256
X110.58Y-65.122
X110.58Y-69.5
X110.58Y-73.878
X110.58Y-78.256
X127.318Y-97.24
X127.318Y-101.619
X127.318Y-105.997
X127.318Y-110.375
X127.318Y-114.753
X127.318Y-119.131
X127.318Y-123.51
X127.318Y-127.888
X127.318Y-132.266
X128.0Y-51.365
X128.0Y-55.744
X128.0Y-60.122
X128.0Y-64.5
X128.0Y-68.878
X128.0Y-73.256
X128.0Y-77.635
X128.0Y-82.013
X128.0Y-86.391
X139.398Y-97.24
X139.398Y-101.619
X139.398Y-105.997
X139.398Y-110.375
X139.398Y-114.753
X139.398Y-119.131
X139.398Y-123.51
X139.398Y-127.888
X139.398Y-132.266
X140.08Y-51.365
X140.08Y-55.744
X140.08Y-60.122
X140.08Y-64.5
X140.08Y-68.878
X140.08Y-73.256
X140.08Y-77.635
X140.08Y-82.013
X140.08Y-86.391
T12
X100.811Y-103.173
X103.351Y-103.173
X105.891Y-103.173
X160.73Y-112.384
X160.73Y-118.871
X161.412Y-66.51
X161.412Y-72.996
X163.27Y-112.384
X163.27Y-118.871
X163.952Y-66.51
X163.952Y-72.996
X165.81Y-112.384
X165.81Y-118.871
X166.492Y-66.51
X166.492Y-72.996
T13
X100.875Y-96.95
X103.415Y-96.95
X105.955Y-96.95
T14
X55.988Y-52.106
X55.988Y-60.306
T4
G00X67.0Y-41.85
M15
G01X67.0Y-41.15
M16
G05
G00X72.35Y-36.5
M15
G01X71.65Y-36.5
M16
G05
G00X77.0Y-41.85
M15
G01X77.0Y-41.15
M16
G05
G00X87.0Y-41.85
M15
G01X87.0Y-41.15
M16
G05
G00X92.35Y-36.5
M15
G01X91.65Y-36.5
M16
G05
G00X97.0Y-41.85
M15
G01X97.0Y-41.15
M16
G05
T9
G00X148.3Y-42.0
M15
G01X148.3Y-40.0
M16
G05
G00X152.0Y-38.0
M15
G01X154.0Y-38.0
M16
G05
G00X151.75Y-44.0
M15
G01X154.25Y-44.0
M16
G05
M30
